<svg width="54" height="54" viewBox="0 0 54 54" fill="none" xmlns="http://www.w3.org/2000/svg">
<path d="M45.1406 16.0312H14.9344L17.4656 28.6875H42.4406L45.1406 16.0312Z" fill="#91DB8B"/>
<path d="M45.4781 30.7125L48.9375 14.6812V14.2594C48.9375 13.3312 48.1781 12.5719 47.25 12.5719H14.2594L13.5 8.94375C13.3313 8.18438 12.6562 7.59375 11.8125 7.59375H6.75C5.82187 7.59375 5.0625 8.35312 5.0625 9.28125C5.0625 10.2094 5.82187 10.9688 6.75 10.9688H10.4625L15.6938 36.7031C13.9219 37.4625 12.6562 39.2344 12.6562 41.3438C12.6562 44.1281 14.9344 46.4062 17.7188 46.4062C20.5031 46.4062 22.7812 44.1281 22.7812 41.3438C22.7812 40.7531 22.6969 40.1625 22.5281 39.6562H34.9313C34.7625 40.1625 34.6781 40.7531 34.6781 41.3438C34.6781 44.1281 36.9562 46.4062 39.7406 46.4062C42.525 46.4062 44.8031 44.1281 44.8031 41.3438C44.8031 40.7531 44.7188 40.1625 44.55 39.6562H45.6469C46.575 39.6562 47.3344 38.8969 47.3344 37.9688C47.3344 37.0406 46.575 36.2812 45.6469 36.2812H18.9844L18.1406 32.0625H43.7906C44.6344 32.0625 45.3094 31.5563 45.4781 30.7125Z" fill="#396547"/>
<path d="M39.6562 43.0312C40.5844 43.0312 41.3438 42.2719 41.3438 41.3438C41.3438 40.4156 40.5844 39.6562 39.6562 39.6562C38.7281 39.6562 37.9688 40.4156 37.9688 41.3438C37.9688 42.2719 38.7281 43.0312 39.6562 43.0312Z" fill="#396547"/>
<path d="M14.9344 16.0312H45.1406L42.4406 28.6875H17.4656L14.9344 16.0312Z" fill="#91DB8B"/>
<path d="M17.7188 43.0312C18.6469 43.0312 19.4062 42.2719 19.4062 41.3438C19.4062 40.4156 18.6469 39.6562 17.7188 39.6562C16.7906 39.6562 16.0312 40.4156 16.0312 41.3438C16.0312 42.2719 16.7906 43.0312 17.7188 43.0312Z" fill="#396547"/>
<path d="M17.7188 43.0312C18.6469 43.0312 19.4062 42.2719 19.4062 41.3438C19.4062 40.4156 18.6469 39.6562 17.7188 39.6562C16.7906 39.6562 16.0312 40.4156 16.0312 41.3438C16.0312 42.2719 16.7906 43.0312 17.7188 43.0312Z" fill="white"/>
<path d="M39.6562 43.0312C40.5844 43.0312 41.3438 42.2719 41.3438 41.3438C41.3438 40.4156 40.5844 39.6562 39.6562 39.6562C38.7281 39.6562 37.9688 40.4156 37.9688 41.3438C37.9688 42.2719 38.7281 43.0312 39.6562 43.0312Z" fill="white"/>
</svg>
