<svg width="64" height="64" viewBox="0 0 64 64" fill="none" xmlns="http://www.w3.org/2000/svg">
<path d="M30.9999 36C26.0299 36 21.9999 40.03 21.9999 45C21.9999 45.18 21.9699 45.36 21.9199 45.52C24.5899 47.08 27.6799 48 30.9999 48C34.3199 48 37.4099 47.09 40.0799 45.52C40.0299 45.35 39.9999 45.18 39.9999 45C39.9999 40.03 35.9699 36 30.9999 36Z" fill="white"/>
<path d="M31 32C34.3137 32 37 29.3137 37 26C37 22.6863 34.3137 20 31 20C27.6863 20 25 22.6863 25 26C25 29.3137 27.6863 32 31 32Z" fill="white"/>
<path d="M24.61 33.69C22.41 31.86 21 29.09 21 26C21 20.48 25.48 16 31 16C36.52 16 41 20.48 41 26C41 29.09 39.6 31.85 37.39 33.69C40.69 35.56 43.08 38.82 43.78 42.67C47.01 39.42 49 34.94 49 30C49 20.06 40.94 12 31 12C21.06 12 13 20.06 13 30C13 34.94 14.99 39.42 18.22 42.67C18.92 38.81 21.31 35.55 24.61 33.69Z" fill="#FFBA90"/>
<path d="M59.41 51.58L49.59 41.76C51.75 38.36 53 34.33 53 30C53 17.85 43.15 8 31 8C18.85 8 9 17.85 9 30C9 42.15 18.85 52 31 52C34.81 52 38.39 51.03 41.51 49.33L51.59 59.41C51.96 59.79 52.47 60 53 60C53.53 60 54.04 59.79 54.41 59.41L59.41 54.41C60.19 53.63 60.19 52.36 59.41 51.58Z" fill="#DD7A01"/>
<path d="M13 30C13 20.06 21.06 12 31 12C40.94 12 49 20.06 49 30C49 34.94 47.01 39.42 43.78 42.67C43.08 38.81 40.69 35.55 37.39 33.69C39.59 31.86 41 29.09 41 26C41 20.48 36.52 16 31 16C25.48 16 21 20.48 21 26C21 29.09 22.4 31.85 24.61 33.69C21.31 35.56 18.92 38.82 18.22 42.67C14.99 39.42 13 34.94 13 30Z" fill="#FFBA90"/>
<path d="M31 32C34.3137 32 37 29.3137 37 26C37 22.6863 34.3137 20 31 20C27.6863 20 25 22.6863 25 26C25 29.3137 27.6863 32 31 32Z" fill="white"/>
<path d="M30.9999 48C27.6799 48 24.5899 47.09 21.9199 45.52C21.9699 45.35 21.9999 45.18 21.9999 45C21.9999 40.03 26.0299 36 30.9999 36C35.9699 36 39.9999 40.03 39.9999 45C39.9999 45.18 40.0299 45.36 40.0799 45.52C37.4099 47.08 34.3199 48 30.9999 48Z" fill="white"/>
<path d="M53.0001 55.17L44.8901 47.06C45.2701 46.75 45.6401 46.42 46.0101 46.08C46.0401 46.05 46.0701 46.02 46.1001 45.99C46.4501 45.66 46.8001 45.31 47.1301 44.96L55.1701 53L53.0001 55.17Z" fill="#DD7A01"/>
<path d="M47.1301 44.96C46.8001 45.32 46.4601 45.66 46.1001 45.99C46.0701 46.02 46.0401 46.05 46.0101 46.08C45.6501 46.42 45.2801 46.74 44.8901 47.06L53.0001 55.17L55.1701 53L47.1301 44.96Z" fill="white"/>
</svg>
