<svg width="60" height="60" viewBox="0 0 60 60" fill="none" xmlns="http://www.w3.org/2000/svg">
<g clip-path="url(#clip0_343_486)">
<path d="M30.6086 56.9994C15.414 57.1021 3.10323 44.8827 3.00064 29.6599C2.89805 14.437 15.1974 2.10342 30.392 2.00064C45.5867 1.89786 57.8974 14.22 58 29.3401V29.4429C58 44.6658 45.6893 56.9994 30.6086 56.9994Z" fill="#0D9DDA"/>
<path d="M30 60C46.569 60 60 46.569 60 30C60 13.431 46.569 0 30 0C13.431 0 0 13.431 0 30C0 46.569 13.431 60 30 60Z" fill="#00004C"/>
<path d="M30.6086 56.9994C15.414 57.1021 3.10323 44.8827 3.00064 29.6599C2.89805 14.437 15.1974 2.10342 30.392 2.00064C45.5867 1.89786 57.8974 14.22 58 29.3401V29.4429C58 44.6658 45.6893 56.9994 30.6086 56.9994Z" fill="#0D9DDA"/>
<path d="M22.52 42.9659C17.9061 40.6547 14.968 35.8425 14.968 30.7066C14.968 27.9822 15.8058 25.2579 17.2805 22.9468L26.9328 37.4057H32.809L42.4613 22.9468C43.9248 25.2579 44.7739 27.9822 44.7739 30.7066C44.7739 35.5299 42.2602 40.0407 38.1714 42.5528L40.0594 49.6762C50.8624 44.0155 55.1635 30.7066 49.4995 19.8093C47.6115 16.136 44.785 13.0991 41.2101 11L29.9938 28.3954L18.878 11C8.38787 17.1855 4.82413 30.7066 11.1138 41.1907C13.4263 44.9645 16.7778 48.1131 20.766 50L22.5535 42.9771L22.52 42.9659Z" fill="white"/>
</g>
<defs>
<clipPath id="clip0_343_486">
<rect width="60" height="60" fill="white"/>
</clipPath>
</defs>
</svg>
