<svg width="60" height="60" viewBox="0 0 60 60" fill="none" xmlns="http://www.w3.org/2000/svg">
<path d="M4.7998 32.6161L13.9078 23.508C14.8438 22.5721 16.3558 22.5721 17.2918 23.508L25.1998 31.344L38.6038 18H27.5998C26.2798 18 25.1998 16.92 25.1998 15.6C25.1998 14.28 26.2798 13.2 27.5998 13.2H44.3998C45.7198 13.2 46.7998 14.28 46.7998 15.6V32.4C46.7998 33.7201 45.7198 34.8001 44.3998 34.8001C43.0798 34.8001 41.9998 33.7201 41.9998 32.4V21.4081L26.9638 36.4321C26.0278 37.368 24.5158 37.368 23.5798 36.4321L15.5998 28.584L4.7998 39.384V55.2001H13.1998V48C13.1998 46.68 14.2798 45.6001 15.5998 45.6001C16.9198 45.6001 17.9998 46.68 17.9998 48V55.2001H27.5998V48C27.5998 46.68 28.6798 45.6001 29.9998 45.6001C31.3198 45.6001 32.3998 46.68 32.3998 48V55.2001H41.9998V48C41.9998 46.68 43.0798 45.6001 44.3998 45.6001C45.7198 45.6001 46.7998 46.68 46.7998 48V55.2001H55.1998V4.80005H4.7998V32.6161Z" fill="#04E1CB"/>
<path d="M23.5798 36.432C24.5158 37.368 26.0278 37.368 26.9638 36.432L41.9998 21.408V32.4C41.9998 33.72 43.0798 34.8 44.3998 34.8C45.7198 34.8 46.7998 33.72 46.7998 32.4V15.6C46.7998 14.28 45.7198 13.2 44.3998 13.2H27.5998C26.2798 13.2 25.1998 14.28 25.1998 15.6C25.1998 16.92 26.2798 18 27.5998 18H38.6038L25.1998 31.344L17.2918 23.508C16.3558 22.572 14.8438 22.572 13.9078 23.508L4.7998 32.616V39.384L15.5998 28.584L23.5798 36.432Z" fill="white"/>
<path d="M57.6 0H2.4C1.08 0 0 1.08 0 2.4V57.6C0 58.92 1.08 60 2.4 60H57.6C58.92 60 60 58.92 60 57.6V2.4C60 1.08 58.92 0 57.6 0ZM55.2 55.2H46.8V48C46.8 46.68 45.72 45.6 44.4 45.6C43.08 45.6 42 46.68 42 48V55.2H32.4V48C32.4 46.68 31.32 45.6 30 45.6C28.68 45.6 27.6 46.68 27.6 48V55.2H18V48C18 46.68 16.92 45.6 15.6 45.6C14.28 45.6 13.2 46.68 13.2 48V55.2H4.8V4.8H55.2V55.2Z" fill="#0B827C"/>
</svg>
