<svg width="72" height="60" viewBox="0 0 72 60" fill="none" xmlns="http://www.w3.org/2000/svg">
<path d="M61.0505 8.81628C56.1115 3.97612 48.4646 3.97612 43.6417 8.81628L37.3487 15.3053C36.3558 16.3292 34.8857 16.3292 33.8928 15.3053L27.5998 8.81628C25.2528 6.3962 22.0419 5 18.7149 5C11.674 5 6 10.8507 6 17.978C6 21.4087 7.35402 24.7197 9.70098 27.2727L35.6207 54L61.5405 27.2727C66.3505 22.0602 66.1055 13.7761 61.0505 8.81628Z" fill="#FF538A"/>
<path d="M18.77 14.338C16.8769 14.338 15.4367 16.0662 15.4367 18.338C15.4367 19.8014 14.4379 21 13.2184 21C11.9988 21 11 19.8014 11 18.338C11 13.1394 14.4495 9 18.7816 9C20.0012 9 21 10.1986 21 11.662C21 13.1254 20.0012 14.324 18.7816 14.324L18.77 14.338Z" fill="#FF538A"/>
<path d="M66.5643 5.31746C59.3346 -1.77249 47.7213 -1.77249 40.4917 5.31746L35.7169 10L30.9421 5.31746C23.8473 -1.26984 12.7331 -1.26984 5.63832 5.31746C-1.59132 12.1561 -1.98248 23.6772 5.12577 30.8862L34.0444 59.246C34.5569 59.7487 35.2043 60 35.8518 60C36.4992 60 37.1466 59.7487 37.6592 59.246L66.5778 30.8862C73.8074 23.7963 73.8074 12.4074 66.5778 5.31746H66.5643Z" fill="#8A033E"/>
<path d="M35.6182 54L9.70067 27.2727C7.3539 24.8526 6 21.5417 6 17.978C6 10.7178 11.6735 5 18.7138 5C22.0405 5 25.2512 6.3962 27.598 8.81628L33.8904 15.3053C34.8833 16.3292 36.3532 16.3292 37.3461 15.3053L43.6385 8.81628C48.577 3.97612 56.2233 3.97612 61.0458 8.81628C66.1004 13.7761 66.3583 22.0469 61.5358 27.2727L35.6182 54Z" fill="#FF538A"/>
<path d="M18.7907 9C14.4535 9 11 13.1394 11 18.338C11 19.8014 12 21 13.2209 21C14.4419 21 15.4419 19.8014 15.4419 18.338C15.4419 16.0662 16.8837 14.338 18.7791 14.338C20 14.338 21 13.1394 21 11.676C21 10.2125 20 9.01394 18.7791 9.01394L18.7907 9Z" fill="white"/>
</svg>
