<svg width="54" height="54" viewBox="0 0 54 54" fill="none" xmlns="http://www.w3.org/2000/svg">
<path d="M34.3828 28.0801H28.2572V34.7457H25.8272V28.0801H19.7016V25.7345H25.8272V19.0688H28.2572V25.7345H34.3828V28.0801Z" fill="#F58220"/>
<path d="M22.0472 36.6356H16.5544V30.6028H14.4788V36.6356H8.89313V38.4412H14.4788V44.3897H16.5544V38.4412H22.0472V36.6356Z" fill="#CD2033"/>
<path d="M45.1069 15.196H39.6141V9.24756H37.5384V15.196H32.0456V17.086H37.5384V23.0344H39.6141V17.086H45.1069V15.196Z" fill="#63A5B9"/>
<path d="M31.6828 43.2168H27.9872V39.074H26.1816V43.2168H22.4016V44.8368H26.1816V49.0724H27.9872V44.8368H31.6828V43.2168Z" fill="#576EB2"/>
<path d="M22.0472 15.196H16.4616V9.24756H14.4788V15.196H8.89313V17.0016H14.4788V23.0344H16.4616V17.0016H22.0472V15.196Z" fill="#FBAF3C"/>
<path d="M49.3425 26.0972H45.6469V21.9543H43.8412V26.0972H40.0612V27.7172H43.8412V31.86H45.6469V27.7172H49.3425V26.0972Z" fill="#576EB2"/>
<path d="M45.1069 36.6356H39.6141V30.6028H37.5384V36.6356H32.0456V38.4412H37.5384V44.3897H39.6141V38.4412H45.1069V36.6356Z" fill="#26569A"/>
<path d="M31.4128 9.0703H27.7172V4.92749H26.3672V9.0703H22.6716V10.3275H26.3672V14.3775H27.7172V10.3275H31.4128V9.0703Z" fill="#63A5B9"/>
<path d="M13.3988 26.2829H9.70313V22.2329H8.35313V26.2829H4.6575V27.5401H8.35313V31.5901H9.70313V27.5401H13.3988V26.2829Z" fill="#63A5B9"/>
</svg>
