<svg width="17" height="17" viewBox="0 0 17 17" fill="none" xmlns="http://www.w3.org/2000/svg">
<path d="M16 8.72476C16 12.8669 12.6421 16.2248 8.5 16.2248M16 8.72476C16 4.58263 12.6421 1.22476 8.5 1.22476M16 8.72476H1M8.5 16.2248C4.35786 16.2248 1 12.8669 1 8.72476M8.5 16.2248C10.376 14.171 11.4421 11.5057 11.5 8.72476C11.4421 5.94379 10.376 3.27853 8.5 1.22476M8.5 16.2248C6.62404 14.171 5.55794 11.5057 5.5 8.72476C5.55794 5.94379 6.62404 3.27853 8.5 1.22476M1 8.72476C1 4.58263 4.35786 1.22476 8.5 1.22476" stroke="#111111" stroke-linecap="round" stroke-linejoin="round"/>
</svg>
