<svg width="16" height="20" viewBox="0 0 16 20" fill="none" xmlns="http://www.w3.org/2000/svg">
<path d="M15.5 8.33334C15.5 14.1667 8 19.1667 8 19.1667C8 19.1667 0.5 14.1667 0.5 8.33334C0.5 6.34421 1.29018 4.43656 2.6967 3.03003C4.10322 1.62351 6.01088 0.833336 8 0.833336C9.98912 0.833336 11.8968 1.62351 13.3033 3.03003C14.7098 4.43656 15.5 6.34421 15.5 8.33334Z" stroke="#1E1E1E" stroke-linecap="round" stroke-linejoin="round"/>
<path d="M8 10.8333C9.38071 10.8333 10.5 9.71405 10.5 8.33334C10.5 6.95262 9.38071 5.83334 8 5.83334C6.61929 5.83334 5.5 6.95262 5.5 8.33334C5.5 9.71405 6.61929 10.8333 8 10.8333Z" stroke="#1E1E1E" stroke-linecap="round" stroke-linejoin="round"/>
</svg>
