<svg width="150" height="43" viewBox="0 0 150 43" fill="none" xmlns="http://www.w3.org/2000/svg">
<g clip-path="url(#clip0_48_35)">
<path d="M17.9672 41.5628H15.6847V28.9808C15.6847 27.4002 15.557 26.1428 15.3046 25.2055C15.0506 24.2697 14.6212 23.4894 14.0164 22.8645C13.373 22.2212 12.6604 21.7533 11.8801 21.4593C11.0998 21.1669 10.1918 21.0207 9.15905 21.0207C8.12479 21.0207 7.18441 21.1915 6.33484 21.5332C5.48681 21.8749 4.71112 22.3966 4.0093 23.0985C3.34595 23.7618 2.88731 24.5036 2.63336 25.3224C2.37941 26.1412 2.25321 27.3617 2.25321 28.9808V41.5628H0V19.0892H2.19472V22.4536C3.11201 21.2054 4.15089 20.2835 5.31136 19.6879C6.47182 19.0938 7.8139 18.7952 9.3345 18.7952C10.6412 18.7952 11.8217 19.0107 12.8759 19.4385C13.9286 19.8679 14.9044 20.5313 15.8017 21.4286C16.582 22.2089 17.1376 23.1693 17.4701 24.3113C17.801 25.4517 17.9672 27.0477 17.9672 29.0962V41.5628Z" fill="#111111"/>
<path d="M44.681 30.4722H26.4229C26.4429 33.3395 27.2617 35.6265 28.8808 37.3334C30.4999 39.0402 32.6746 39.8944 35.4065 39.8944C37.0841 39.8944 38.4893 39.6112 39.6205 39.0464C40.7517 38.4815 41.7167 37.5827 42.517 36.3545L44.3901 37.7305C43.4343 39.2126 42.2154 40.31 40.7317 41.0226C39.2496 41.7351 37.455 42.0907 35.348 42.0907C31.9928 42.0907 29.2764 41.0379 27.1986 38.9309C25.1208 36.8239 24.082 33.9074 24.082 30.1813C24.082 26.7676 25.0223 24.0173 26.9062 21.9288C28.7885 19.8418 31.3203 18.7983 34.5 18.7983C35.9636 18.7983 37.3042 19.0476 38.5231 19.5447C39.7421 20.0419 40.8594 20.7883 41.8737 21.7825C42.8095 22.7183 43.5128 23.9188 43.9807 25.3825C44.4486 26.8461 44.681 28.5406 44.681 30.4722ZM42.2816 28.3067C42.1246 26.1027 41.3458 24.322 39.9406 22.9661C38.5354 21.6102 36.7224 20.933 34.4984 20.933C32.2945 20.933 30.4691 21.5963 29.027 22.923C27.5834 24.2497 26.7061 26.0443 26.3937 28.3067H42.2816Z" fill="#111111"/>
<path d="M63.8179 35.8559C63.8179 37.7874 63.1884 39.308 61.931 40.4208C60.672 41.532 58.9805 42.0891 56.8535 42.0891C55.4884 42.0891 54.2156 41.7475 53.0351 41.0657C51.8546 40.3839 50.8157 39.3681 49.9185 38.0229L51.7038 36.7055C52.4841 37.8367 53.2844 38.6616 54.1032 39.1788C54.922 39.6959 55.8393 39.9544 56.8535 39.9544C58.2972 39.9544 59.4377 39.5881 60.2765 38.8571C61.1152 38.126 61.5354 37.1256 61.5354 35.8574C61.5354 34.8816 61.2861 34.0829 60.789 33.458C60.2918 32.8347 59.3992 32.1606 58.111 31.4387L57.7016 31.2048C55.0097 29.6642 53.249 28.4206 52.4195 27.4741C51.5899 26.5275 51.1759 25.3332 51.1759 23.8896C51.1759 22.3289 51.7069 21.09 52.7704 20.1727C53.8339 19.2554 55.1944 18.7968 56.852 18.7968C57.7493 18.7968 58.5973 18.9383 59.3976 19.2215C60.198 19.5047 60.929 19.9187 61.5924 20.4651L61.9433 20.7575L60.5088 22.4551C59.9825 21.9088 59.4207 21.5086 58.8266 21.2547C58.231 21.0007 57.5723 20.8745 56.852 20.8745C55.7408 20.8745 54.8958 21.1331 54.3202 21.6502C53.7446 22.1673 53.4568 22.9138 53.4568 23.888C53.4568 24.8053 53.74 25.5856 54.3048 26.229C54.8697 26.8723 56.2656 27.8281 58.4896 29.0963L58.899 29.3302C60.8305 30.4414 62.1326 31.4711 62.8052 32.4176C63.4808 33.3641 63.8179 34.5107 63.8179 35.8559Z" fill="#111111"/>
<path d="M79.0316 41.5628L78.593 41.7382C78.3975 41.8352 78.1205 41.9091 77.7588 41.9583C77.3971 42.0076 77.0416 42.0322 76.6907 42.0322C76.0473 42.0322 75.4225 41.9106 74.8176 41.6659C74.2127 41.4227 73.6772 41.0656 73.2077 40.5978C72.6614 40.0514 72.2951 39.4235 72.1104 38.7109C71.9241 37.9983 71.8318 36.55 71.8318 34.366V21.6086L69.14 21.6671L69.8418 19.4432H71.8318V10.8674L74.1142 9.87317V19.4416H79.0301V21.6071H74.1142V34.7462C74.1142 36.4823 74.1727 37.575 74.2897 38.0229C74.4067 38.4723 74.6406 38.8525 74.9915 39.1633C75.2255 39.3973 75.4933 39.5681 75.7965 39.6759C76.0981 39.7836 76.4552 39.8375 76.8646 39.8375C77.294 39.8375 77.6788 39.7836 78.0204 39.6759C78.3621 39.5681 78.6976 39.3973 79.0301 39.1633V41.5628H79.0316Z" fill="#111111"/>
<path d="M106.215 30.4137C106.215 33.8074 105.151 36.6023 103.026 38.7971C100.899 40.9918 98.207 42.0891 94.9503 42.0891C91.6736 42.0891 88.9756 40.9918 86.8594 38.7971C84.7432 36.6023 83.6843 33.8074 83.6843 30.4137C83.6843 27 84.757 24.2097 86.9025 22.0442C89.048 19.8787 91.7306 18.7968 94.9488 18.7968C98.147 18.7968 100.825 19.8787 102.981 22.0442C105.137 24.2097 106.215 27 106.215 30.4137ZM103.874 30.4137C103.874 27.6834 103.035 25.4348 101.357 23.6695C99.6799 21.9041 97.5437 21.0207 94.9488 21.0207C92.3539 21.0207 90.2177 21.9041 88.5401 23.6695C86.8625 25.4348 86.0237 27.6834 86.0237 30.4137C86.0237 33.164 86.8625 35.4326 88.5401 37.2164C90.2177 39.0018 92.3539 39.8944 94.9488 39.8944C97.5236 39.8944 99.6553 39.0018 101.342 37.2164C103.03 35.4326 103.874 33.164 103.874 30.4137Z" fill="#111111"/>
<path d="M125.439 35.8559C125.439 37.7874 124.81 39.308 123.552 40.4208C122.294 41.532 120.602 42.0891 118.475 42.0891C117.11 42.0891 115.837 41.7475 114.657 41.0657C113.476 40.3839 112.437 39.3681 111.54 38.0229L113.325 36.7055C114.106 37.8367 114.906 38.6616 115.725 39.1788C116.544 39.6959 117.461 39.9544 118.475 39.9544C119.919 39.9544 121.059 39.5881 121.898 38.8571C122.737 38.126 123.157 37.1256 123.157 35.8574C123.157 34.8816 122.908 34.0829 122.41 33.458C121.913 32.8347 121.021 32.1606 119.732 31.4387L119.323 31.2048C116.631 29.6642 114.871 28.4206 114.041 27.4741C113.211 26.5275 112.797 25.3332 112.797 23.8896C112.797 22.3289 113.328 21.09 114.392 20.1727C115.455 19.2554 116.816 18.7968 118.474 18.7968C119.371 18.7968 120.219 18.9383 121.019 19.2215C121.818 19.5047 122.551 19.9187 123.214 20.4651L123.565 20.7575L122.13 22.4551C121.604 21.9088 121.042 21.5086 120.448 21.2547C119.853 21.0007 119.194 20.8745 118.474 20.8745C117.362 20.8745 116.517 21.1331 115.942 21.6502C115.366 22.1673 115.078 22.9138 115.078 23.888C115.078 24.8053 115.362 25.5856 115.926 26.229C116.491 26.8723 117.887 27.8281 120.111 29.0963L120.52 29.3302C122.452 30.4414 123.754 31.4711 124.427 32.4176C125.102 33.3641 125.439 34.5107 125.439 35.8559Z" fill="#111111"/>
<path d="M149.871 41.5628H147.588V29.5657C147.588 27.6741 147.462 26.269 147.208 25.3517C146.954 24.4344 146.506 23.6448 145.861 22.9815C145.198 22.3182 144.447 21.8256 143.608 21.504C142.769 21.1823 141.843 21.0207 140.829 21.0207C139.853 21.0207 138.926 21.1915 138.049 21.5332C137.172 21.8749 136.419 22.3582 135.796 22.9815C135.171 23.6064 134.766 24.3128 134.582 25.1023C134.395 25.8919 134.303 27.6434 134.303 30.3552V41.5628H131.962V0.0400085H134.215V21.898C135.171 20.7868 136.151 19.9911 137.156 19.5124C138.161 19.0353 139.385 18.7952 140.829 18.7952C142.155 18.7952 143.36 18.9999 144.442 19.4093C145.524 19.8187 146.476 20.4328 147.296 21.2531C148.232 22.1889 148.895 23.2478 149.286 24.4282C149.677 25.6087 149.871 27.3402 149.871 29.6226V41.5628Z" fill="#111111"/>
<path d="M70.2912 6.64572C69.2647 7.97703 68.6552 8.3187 67.5532 8.3187C66.9453 8.3187 66.4882 8.01396 66.4882 7.5584C66.4882 7.21672 66.6405 6.83503 66.9453 6.41794L70.5575 1.47442C71.1654 0.600228 71.8118 0.104645 72.8769 0.104645H73.2185C74.2836 0.104645 74.93 0.598689 75.5764 1.47442L79.1886 6.41794C79.4549 6.83657 79.6073 7.21672 79.6073 7.5584C79.6073 8.01396 79.1517 8.3187 78.5422 8.3187C77.4018 8.3187 76.7923 7.97703 75.7657 6.64572L73.0292 3.10892L70.2912 6.64572Z" fill="#17A3C1"/>
</g>
<defs>
<clipPath id="clip0_48_35">
<rect width="150" height="42.1461" fill="white"/>
</clipPath>
</defs>
</svg>
