<svg width="21" height="21" viewBox="0 0 21 21" fill="none" xmlns="http://www.w3.org/2000/svg">
<path d="M13.1688 4.375C14.0234 4.54174 14.8088 4.95973 15.4246 5.57544C16.0403 6.19116 16.4583 6.97661 16.625 7.83125M13.1688 0.875C14.9444 1.07226 16.6001 1.8674 17.8642 3.12988C19.1283 4.39236 19.9255 6.04713 20.125 7.8225M19.25 14.805V17.43C19.251 17.6737 19.2011 17.9149 19.1034 18.1382C19.0058 18.3615 18.8626 18.5619 18.6831 18.7266C18.5035 18.8914 18.2915 19.0168 18.0607 19.0949C17.8298 19.1729 17.5852 19.2019 17.3425 19.18C14.65 18.8874 12.0636 17.9674 9.79125 16.4938C7.6771 15.1503 5.88467 13.3579 4.54125 11.2438C3.06248 8.96105 2.14222 6.36212 1.855 3.6575C1.83314 3.41553 1.86189 3.17167 1.93944 2.94142C2.01699 2.71118 2.14163 2.4996 2.30542 2.32017C2.46922 2.14073 2.66858 1.99737 2.89082 1.89921C3.11306 1.80104 3.3533 1.75023 3.59625 1.75H6.22125C6.6459 1.74582 7.05757 1.89619 7.37954 2.17309C7.70152 2.44999 7.91182 2.83452 7.97125 3.255C8.08205 4.09506 8.28752 4.91989 8.58375 5.71375C8.70148 6.02693 8.72696 6.3673 8.65717 6.69452C8.58738 7.02174 8.42526 7.3221 8.19 7.56L7.07875 8.67125C8.32436 10.8619 10.1381 12.6756 12.3288 13.9212L13.44 12.81C13.6779 12.5747 13.9783 12.4126 14.3055 12.3428C14.6327 12.273 14.9731 12.2985 15.2863 12.4162C16.0801 12.7125 16.9049 12.918 17.745 13.0288C18.17 13.0887 18.5582 13.3028 18.8357 13.6303C19.1132 13.9578 19.2606 14.3759 19.25 14.805Z" stroke="#1E1E1E" stroke-linecap="round" stroke-linejoin="round"/>
</svg>
