<svg width="21" height="15" viewBox="0 0 21 15" fill="none" xmlns="http://www.w3.org/2000/svg">
<path d="M0 0.58374H21V14.6985H0V0.58374Z" fill="#D6D4D1"/>
<path d="M0.174561 7.64111H20.8295V14.5266H0.174561V7.64111Z" fill="white"/>
<path d="M0.174438 0.756348H20.8293V7.64114H0.174438V0.756348Z" fill="#E31F38"/>
<path d="M5.03827 6.40809C3.85112 6.35896 2.92008 5.38929 2.92008 4.19911C2.92008 3.00901 3.85112 2.03942 5.03827 1.99021C5.04538 1.99021 5.05135 1.98545 5.05135 1.97895C5.05256 1.97298 5.04901 1.96647 5.04303 1.96474C4.7916 1.87697 4.5283 1.83252 4.26145 1.83252C2.95682 1.83252 1.89539 2.89403 1.89539 4.19919C1.89539 5.50442 2.9569 6.56594 4.26145 6.56594C4.5283 6.56594 4.7916 6.52149 5.04303 6.43372C5.04901 6.43198 5.05248 6.42593 5.05135 6.41951C5.05135 6.41293 5.04545 6.40809 5.03827 6.40809Z" fill="white"/>
<path d="M4.74848 3.61524C4.74727 3.61048 4.74138 3.60632 4.73548 3.60632L4.32983 3.60692L4.20412 3.20015C4.20177 3.18888 4.1828 3.18941 4.17925 3.20015L4.05474 3.60692L3.64796 3.60632C3.64199 3.60632 3.6373 3.61048 3.63496 3.61524C3.63375 3.62061 3.63496 3.6265 3.63972 3.63066L3.96939 3.88096L3.84368 4.28834C3.84126 4.29311 3.84368 4.29908 3.84844 4.30256C3.85086 4.30429 3.85441 4.3055 3.85676 4.3055C3.8591 4.3055 3.86152 4.30429 3.86386 4.30256L4.1924 4.05052L4.52094 4.30256C4.52215 4.30429 4.5257 4.3049 4.52804 4.3049H4.52925C4.53636 4.3049 4.54233 4.299 4.54233 4.29182C4.54233 4.28948 4.54112 4.28592 4.53999 4.28411L4.41548 3.88088L4.74402 3.63059C4.74848 3.62643 4.7509 3.62 4.74848 3.61524Z" fill="white"/>
<path d="M7.4341 3.61519C7.43289 3.61043 7.427 3.60627 7.4211 3.60627L7.01546 3.60688L6.88974 3.2001C6.8874 3.18883 6.86842 3.18883 6.86487 3.2001L6.74036 3.60688L6.33358 3.60627C6.32761 3.60627 6.32285 3.61043 6.32051 3.61519C6.3193 3.62056 6.32051 3.62646 6.32527 3.63062L6.65494 3.88091L6.5293 4.2883C6.52688 4.29306 6.5293 4.29903 6.53406 4.30251C6.53641 4.30425 6.53883 4.30546 6.54117 4.30546C6.54472 4.30546 6.54707 4.30425 6.54948 4.30251L6.87802 4.05047L7.20535 4.30251C7.2077 4.30425 7.21125 4.30485 7.21359 4.30485C7.22191 4.30485 7.2278 4.29896 7.2278 4.29177C7.2278 4.28943 7.22659 4.28588 7.22546 4.28406L7.09974 3.88084L7.42942 3.63054C7.4341 3.62638 7.43531 3.61996 7.4341 3.61519Z" fill="white"/>
<path d="M5.87206 3.26367H5.87327C5.88037 3.26367 5.88634 3.2583 5.88634 3.24998C5.88634 3.24764 5.88513 3.24522 5.884 3.24227L5.75829 2.83905L6.08796 2.58875C6.09272 2.5852 6.09514 2.5793 6.09272 2.57393C6.09151 2.56857 6.08561 2.56441 6.07972 2.56441L5.67407 2.56562L5.54957 2.15884C5.54601 2.14757 5.52704 2.14757 5.52349 2.15884L5.39898 2.56562L4.9922 2.56441C4.9863 2.56441 4.98154 2.56857 4.9792 2.57393C4.97799 2.57923 4.9792 2.5852 4.98396 2.58875L5.31484 2.83905L5.18792 3.24643C5.18557 3.25233 5.18792 3.2583 5.19268 3.26125C5.19502 3.26246 5.19858 3.26367 5.20092 3.26367C5.20326 3.26367 5.20568 3.26246 5.20802 3.26125L5.53656 3.00868L5.86389 3.26125C5.86616 3.26246 5.86971 3.26367 5.87206 3.26367Z" fill="white"/>
<path d="M5.23023 5.14918L4.82345 5.15039L4.69894 4.7424C4.69539 4.73235 4.67642 4.73235 4.67286 4.7424L4.54836 5.15039L4.14158 5.14979C4.13682 5.14979 4.13084 5.15274 4.12971 5.15803C4.1285 5.1634 4.12971 5.1699 4.13447 5.17285L4.46414 5.42428L4.33722 5.83106C4.33488 5.83642 4.33722 5.84232 4.34319 5.84587C4.3444 5.84761 4.34674 5.84822 4.3503 5.84822C4.35272 5.84822 4.35627 5.84761 4.3574 5.84527L4.68594 5.59384L5.01448 5.84527C5.01682 5.84701 5.01924 5.84822 5.02159 5.84822H5.0228C5.0299 5.84822 5.0358 5.84171 5.0358 5.83461C5.0358 5.83227 5.03459 5.82864 5.03459 5.82682L4.90766 5.4242L5.23734 5.17277C5.2421 5.16982 5.24444 5.16332 5.2421 5.15795C5.23976 5.15266 5.2362 5.14918 5.23023 5.14918Z" fill="white"/>
<path d="M6.93548 5.14918L6.5287 5.15039L6.40419 4.7424C6.40057 4.73235 6.38159 4.73235 6.37804 4.7424L6.25353 5.15039L5.84675 5.14979C5.84199 5.14979 5.83723 5.15274 5.83367 5.15803C5.83246 5.1634 5.83367 5.1699 5.83965 5.17285L6.16939 5.42428L6.04247 5.83106C6.04005 5.83642 6.04247 5.84232 6.04723 5.84587C6.04958 5.84761 6.05199 5.84822 6.05547 5.84822C6.05789 5.84822 6.06023 5.84761 6.06379 5.84527L6.39112 5.59384L6.71965 5.84527C6.722 5.84701 6.72442 5.84822 6.72789 5.84822C6.73508 5.84701 6.74097 5.84171 6.74097 5.83461C6.74097 5.83227 6.74097 5.82864 6.73863 5.82682L6.61291 5.4242L6.94259 5.17277C6.94735 5.16982 6.94977 5.16332 6.94735 5.15795C6.94614 5.15266 6.94024 5.14918 6.93548 5.14918Z" fill="white"/>
</svg>
