<svg width="21" height="21" viewBox="0 0 21 21" fill="none" xmlns="http://www.w3.org/2000/svg">
<path d="M20.6378 17.3792H0.362085C0.162134 17.3792 0 17.2171 0 17.0171V3.98269C0 3.78274 0.162134 3.62061 0.362085 3.62061H20.6379C20.8378 3.62061 21 3.78274 21 3.98269V17.0171C20.9999 17.2171 20.8378 17.3792 20.6378 17.3792Z" fill="#41479B"/>
<path d="M20.9999 3.98269C20.9999 3.78274 20.8378 3.62061 20.6378 3.62061H19.0179L12.3103 8.01529V3.62061H8.68958V8.01529L1.98195 3.62061H0.362085C0.162134 3.62061 0 3.78274 0 3.98269V4.91911L5.75484 8.68954H0V12.3102H5.75484L0 16.0807V17.0171C0 17.2171 0.162134 17.3792 0.362085 17.3792H1.98199L8.68966 12.9845V17.3792H12.3103V12.9845L19.018 17.3792H20.6379C20.8379 17.3792 21 17.2171 21 17.0171V16.0807L15.2452 12.3103H20.9999V8.68958H15.2451L20.9999 4.91911V3.98269Z" fill="#F5F5F5"/>
<path d="M20.9999 9.41371H11.5862V3.62061H9.41375V9.41371H0V11.5861H9.41375V17.3792H11.5862V11.5861H20.9999V9.41371Z" fill="#FF4B55"/>
<path d="M7.33964 12.3103L0.0102539 17.068C0.0358886 17.2428 0.180058 17.3793 0.362044 17.3793H0.860751L8.66969 12.3103H7.33964V12.3103Z" fill="#FF4B55"/>
<path d="M14.2072 12.3103H12.8772L20.6748 17.3718C20.8565 17.3524 20.9999 17.204 20.9999 17.0172V16.7195L14.2072 12.3103Z" fill="#FF4B55"/>
<path d="M0 4.38247L6.63544 8.68967H7.96549L0.210943 3.65601C0.0870758 3.71355 0 3.83721 0 3.98278V4.38247Z" fill="#FF4B55"/>
<path d="M13.6404 8.68954L20.9873 3.92039C20.9568 3.75132 20.8157 3.62061 20.6378 3.62061H20.1191L12.3103 8.68954H13.6404Z" fill="#FF4B55"/>
</svg>
