<svg width="21" height="14" viewBox="0 0 21 14" fill="none" xmlns="http://www.w3.org/2000/svg">
<path d="M0 11.5049H21V12.5511H0V11.5049Z" fill="white"/>
<path d="M0 9.4126H21V10.4588H0V9.4126Z" fill="white"/>
<path d="M0 7.32007H21V8.36632H0V7.32007Z" fill="white"/>
<path d="M0 5.2312H21V6.27745H0V5.2312Z" fill="white"/>
<path d="M0 3.13867H21V4.18492H0V3.13867Z" fill="white"/>
<path d="M0 1.04614H21V2.09239H0V1.04614Z" fill="white"/>
<path d="M0 12.5513H21V13.5975H0V12.5513Z" fill="#BD3D44"/>
<path d="M0 10.4587H21V11.505H0V10.4587Z" fill="#BD3D44"/>
<path d="M0 8.36621H21V9.41246H0V8.36621Z" fill="#BD3D44"/>
<path d="M0 6.27759H21V7.32384H0V6.27759Z" fill="#BD3D44"/>
<path d="M0 4.18506H21V5.23131H0V4.18506Z" fill="#BD3D44"/>
<path d="M0 2.09253H21V3.13878H0V2.09253Z" fill="#BD3D44"/>
<path d="M0 0H21V1.04625H0V0Z" fill="#BD3D44"/>
<path d="M0 0H8.85375V6.1725H0V0Z" fill="#192F5D"/>
<path d="M0.615049 0.97874L0.825049 0.82499L1.03505 0.97874L0.956299 0.73124L1.1663 0.58124H0.907549L0.825049 0.33374L0.746299 0.58124H0.487549L0.697549 0.73124L0.615049 0.97874Z" fill="white"/>
<path d="M0.825293 1.55249L0.746543 1.79999H0.487793L0.697793 1.94999L0.615293 2.19749L0.825293 2.04374L1.03529 2.19749L0.956543 1.94999L1.16654 1.79999H0.907793L0.825293 1.55249Z" fill="white"/>
<path d="M0.825293 2.77124L0.746543 3.01874H0.487793L0.697793 3.16874L0.615293 3.41624L0.825293 3.26249L1.03529 3.41624L0.956543 3.16874L1.16654 3.01874H0.907793L0.825293 2.77124Z" fill="white"/>
<path d="M0.825293 3.98999L0.746543 4.23374H0.487793L0.697793 4.38749L0.615293 4.63499L0.825293 4.48124L1.03529 4.63499L0.956543 4.38749L1.16654 4.23374H0.907793L0.825293 3.98999Z" fill="white"/>
<path d="M0.907793 5.45249L0.825293 5.20874L0.746543 5.45249H0.487793L0.697793 5.60624L0.615293 5.85374L0.825293 5.69999L1.03529 5.85374L0.956543 5.60624L1.16654 5.45249H0.907793Z" fill="white"/>
<path d="M1.98391 0.97874L2.19391 0.82499L2.40016 0.97874L2.32141 0.73124L2.53141 0.58124H2.27266L2.19391 0.33374L2.11141 0.58124H1.85266L2.06266 0.73124L1.98391 0.97874Z" fill="white"/>
<path d="M2.19391 1.55249L2.11141 1.79999H1.85266L2.06266 1.94999L1.98391 2.19749L2.19391 2.04374L2.40016 2.19749L2.32141 1.94999L2.53141 1.79999H2.27266L2.19391 1.55249Z" fill="white"/>
<path d="M2.19391 2.77124L2.11141 3.01874H1.85266L2.06266 3.16874L1.98391 3.41624L2.19391 3.26249L2.40016 3.41624L2.32141 3.16874L2.53141 3.01874H2.27266L2.19391 2.77124Z" fill="white"/>
<path d="M2.19391 3.98999L2.11141 4.23374H1.85266L2.06266 4.38749L1.98391 4.63499L2.19391 4.48124L2.40016 4.63499L2.32141 4.38749L2.53141 4.23374H2.27266L2.19391 3.98999Z" fill="white"/>
<path d="M2.27266 5.45249L2.19391 5.20874L2.11141 5.45249H1.85266L2.06266 5.60624L1.98391 5.85374L2.19391 5.69999L2.40016 5.85374L2.32141 5.60624L2.53141 5.45249H2.27266Z" fill="white"/>
<path d="M3.34878 0.97874L3.55878 0.82499L3.76503 0.97874L3.68628 0.73124L3.89628 0.58124H3.63753L3.55878 0.33374L3.47628 0.58124H3.21753L3.42753 0.73124L3.34878 0.97874Z" fill="white"/>
<path d="M3.55878 1.55249L3.47628 1.79999H3.21753L3.42753 1.94999L3.34878 2.19749L3.55878 2.04374L3.76503 2.19749L3.68628 1.94999L3.89628 1.79999H3.63753L3.55878 1.55249Z" fill="white"/>
<path d="M3.55878 2.77124L3.47628 3.01874H3.21753L3.42753 3.16874L3.34878 3.41624L3.55878 3.26249L3.76503 3.41624L3.68628 3.16874L3.89628 3.01874H3.63753L3.55878 2.77124Z" fill="white"/>
<path d="M3.55878 3.98999L3.47628 4.23374H3.21753L3.42753 4.38749L3.34878 4.63499L3.55878 4.48124L3.76503 4.63499L3.68628 4.38749L3.89628 4.23374H3.63753L3.55878 3.98999Z" fill="white"/>
<path d="M3.63753 5.45249L3.55878 5.20874L3.47628 5.45249H3.21753L3.42753 5.60624L3.34878 5.85374L3.55878 5.69999L3.76503 5.85374L3.68628 5.60624L3.89628 5.45249H3.63753Z" fill="white"/>
<path d="M4.71417 0.97874L4.92417 0.82499L5.13417 0.97874L5.05167 0.73124L5.26167 0.58124H5.00292L4.92417 0.33374L4.84167 0.58124H4.58667L4.79292 0.73124L4.71417 0.97874Z" fill="white"/>
<path d="M4.92417 1.55249L4.84167 1.79999H4.58667L4.79292 1.94999L4.71417 2.19749L4.92417 2.04374L5.13417 2.19749L5.05167 1.94999L5.26167 1.79999H5.00292L4.92417 1.55249Z" fill="white"/>
<path d="M4.92417 2.77124L4.84167 3.01874H4.58667L4.79292 3.16874L4.71417 3.41624L4.92417 3.26249L5.13417 3.41624L5.05167 3.16874L5.26167 3.01874H5.00292L4.92417 2.77124Z" fill="white"/>
<path d="M4.92417 3.98999L4.84167 4.23374H4.58667L4.79292 4.38749L4.71417 4.63499L4.92417 4.48124L5.13417 4.63499L5.05167 4.38749L5.26167 4.23374H5.00292L4.92417 3.98999Z" fill="white"/>
<path d="M5.00292 5.45249L4.92417 5.20874L4.84167 5.45249H4.58667L4.79292 5.60624L4.71417 5.85374L4.92417 5.69999L5.13417 5.85374L5.05167 5.60624L5.26167 5.45249H5.00292Z" fill="white"/>
<path d="M6.07904 0.97874L6.28904 0.82499L6.49904 0.97874L6.41654 0.73124L6.62654 0.58124H6.36779L6.28904 0.33374L6.21029 0.58124H5.95154L6.16154 0.73124L6.07904 0.97874Z" fill="white"/>
<path d="M6.28904 1.55249L6.21029 1.79999H5.95154L6.16154 1.94999L6.07904 2.19749L6.28904 2.04374L6.49904 2.19749L6.41654 1.94999L6.62654 1.79999H6.36779L6.28904 1.55249Z" fill="white"/>
<path d="M6.28904 2.77124L6.21029 3.01874H5.95154L6.16154 3.16874L6.07904 3.41624L6.28904 3.26249L6.49904 3.41624L6.41654 3.16874L6.62654 3.01874H6.36779L6.28904 2.77124Z" fill="white"/>
<path d="M6.28904 3.98999L6.21029 4.23374H5.95154L6.16154 4.38749L6.07904 4.63499L6.28904 4.48124L6.49904 4.63499L6.41654 4.38749L6.62654 4.23374H6.36779L6.28904 3.98999Z" fill="white"/>
<path d="M6.36779 5.45249L6.28904 5.20874L6.21029 5.45249H5.95154L6.16154 5.60624L6.07904 5.85374L6.28904 5.69999L6.49904 5.85374L6.41654 5.60624L6.62654 5.45249H6.36779Z" fill="white"/>
<path d="M7.44766 0.97874L7.65391 0.82499L7.86391 0.97874L7.78516 0.73124L7.99516 0.58124H7.73641L7.65391 0.33374L7.57516 0.58124H7.31641L7.52641 0.73124L7.44766 0.97874Z" fill="white"/>
<path d="M7.65391 1.55249L7.57516 1.79999H7.31641L7.52641 1.94999L7.44766 2.19749L7.65391 2.04374L7.86391 2.19749L7.78516 1.94999L7.99516 1.79999H7.73641L7.65391 1.55249Z" fill="white"/>
<path d="M7.65391 2.77124L7.57516 3.01874H7.31641L7.52641 3.16874L7.44766 3.41624L7.65391 3.26249L7.86391 3.41624L7.78516 3.16874L7.99516 3.01874H7.73641L7.65391 2.77124Z" fill="white"/>
<path d="M7.65391 3.98999L7.57516 4.23374H7.31641L7.52641 4.38749L7.44766 4.63499L7.65391 4.48124L7.86391 4.63499L7.78516 4.38749L7.99516 4.23374H7.73641L7.65391 3.98999Z" fill="white"/>
<path d="M7.73641 5.45249L7.65391 5.20874L7.57516 5.45249H7.31641L7.52641 5.60624L7.44766 5.85374L7.65391 5.69999L7.86391 5.85374L7.78516 5.60624L7.99516 5.45249H7.73641Z" fill="white"/>
<path d="M1.30142 1.65013L1.50767 1.49638L1.71767 1.65013L1.63892 1.40263L1.84892 1.24888H1.59017L1.50767 1.00513L1.42892 1.24888H1.17017L1.38017 1.40263L1.30142 1.65013Z" fill="white"/>
<path d="M1.50767 2.22388L1.42892 2.46763H1.17017L1.38017 2.62138L1.30142 2.86513L1.50767 2.71513L1.71767 2.86513L1.63892 2.62138L1.84892 2.46763H1.59017L1.50767 2.22388Z" fill="white"/>
<path d="M1.50767 3.44238L1.42892 3.68613H1.17017L1.38017 3.83988L1.30142 4.08363L1.50767 3.93363L1.71767 4.08363L1.63892 3.83988L1.84892 3.68613H1.59017L1.50767 3.44238Z" fill="white"/>
<path d="M1.50767 4.66113L1.42892 4.90488H1.17017L1.38017 5.05863L1.30142 5.30238L1.50767 5.15238L1.71767 5.30238L1.63892 5.05863L1.84892 4.90488H1.59017L1.50767 4.66113Z" fill="white"/>
<path d="M2.66628 1.65013L2.87628 1.49638L3.08253 1.65013L3.00378 1.40263L3.21378 1.24888H2.95503L2.87628 1.00513L2.79378 1.24888H2.53503L2.74503 1.40263L2.66628 1.65013Z" fill="white"/>
<path d="M2.87628 2.22388L2.79378 2.46763H2.53503L2.74503 2.62138L2.66628 2.86513L2.87628 2.71513L3.08253 2.86513L3.00378 2.62138L3.21378 2.46763H2.95503L2.87628 2.22388Z" fill="white"/>
<path d="M2.87628 3.44238L2.79378 3.68613H2.53503L2.74503 3.83988L2.66628 4.08363L2.87628 3.93363L3.08253 4.08363L3.00378 3.83988L3.21378 3.68613H2.95503L2.87628 3.44238Z" fill="white"/>
<path d="M2.87628 4.66113L2.79378 4.90488H2.53503L2.74503 5.05863L2.66628 5.30238L2.87628 5.15238L3.08253 5.30238L3.00378 5.05863L3.21378 4.90488H2.95503L2.87628 4.66113Z" fill="white"/>
<path d="M4.03115 1.65013L4.24115 1.49638L4.45115 1.65013L4.36865 1.40263L4.57865 1.24888H4.3199L4.24115 1.00513L4.1624 1.24888H3.8999L4.1099 1.40263L4.03115 1.65013Z" fill="white"/>
<path d="M4.24115 2.22388L4.1624 2.46763H3.8999L4.1099 2.62138L4.03115 2.86513L4.24115 2.71513L4.45115 2.86513L4.36865 2.62138L4.57865 2.46763H4.3199L4.24115 2.22388Z" fill="white"/>
<path d="M4.24115 3.44238L4.1624 3.68613H3.8999L4.1099 3.83988L4.03115 4.08363L4.24115 3.93363L4.45115 4.08363L4.36865 3.83988L4.57865 3.68613H4.3199L4.24115 3.44238Z" fill="white"/>
<path d="M4.24115 4.66113L4.1624 4.90488H3.8999L4.1099 5.05863L4.03115 5.30238L4.24115 5.15238L4.45115 5.30238L4.36865 5.05863L4.57865 4.90488H4.3199L4.24115 4.66113Z" fill="white"/>
<path d="M5.39654 1.65013L5.60654 1.49638L5.81654 1.65013L5.73404 1.40263L5.94404 1.24888H5.68529L5.60654 1.00513L5.52779 1.24888H5.26904L5.47904 1.40263L5.39654 1.65013Z" fill="white"/>
<path d="M5.60654 2.22388L5.52779 2.46763H5.26904L5.47904 2.62138L5.39654 2.86513L5.60654 2.71513L5.81654 2.86513L5.73404 2.62138L5.94404 2.46763H5.68529L5.60654 2.22388Z" fill="white"/>
<path d="M5.60654 3.44238L5.52779 3.68613H5.26904L5.47904 3.83988L5.39654 4.08363L5.60654 3.93363L5.81654 4.08363L5.73404 3.83988L5.94404 3.68613H5.68529L5.60654 3.44238Z" fill="white"/>
<path d="M5.60654 4.66113L5.52779 4.90488H5.26904L5.47904 5.05863L5.39654 5.30238L5.60654 5.15238L5.81654 5.30238L5.73404 5.05863L5.94404 4.90488H5.68529L5.60654 4.66113Z" fill="white"/>
<path d="M6.76141 1.65013L6.97141 1.49638L7.18141 1.65013L7.10266 1.40263L7.30891 1.24888H7.05016L6.97141 1.00513L6.89266 1.24888H6.63391L6.84391 1.40263L6.76141 1.65013Z" fill="white"/>
<path d="M6.97141 2.22388L6.89266 2.46763H6.63391L6.84391 2.62138L6.76141 2.86513L6.97141 2.71513L7.18141 2.86513L7.10266 2.62138L7.30891 2.46763H7.05016L6.97141 2.22388Z" fill="white"/>
<path d="M6.97141 3.44238L6.89266 3.68613H6.63391L6.84391 3.83988L6.76141 4.08363L6.97141 3.93363L7.18141 4.08363L7.10266 3.83988L7.30891 3.68613H7.05016L6.97141 3.44238Z" fill="white"/>
<path d="M6.97141 4.66113L6.89266 4.90488H6.63391L6.84391 5.05863L6.76141 5.30238L6.97141 5.15238L7.18141 5.30238L7.10266 5.05863L7.30891 4.90488H7.05016L6.97141 4.66113Z" fill="white"/>
</svg>
