<svg xmlns="http://www.w3.org/2000/svg" width="232" height="49" viewBox="0 0 232 49">
    <g fill="none" fill-rule="evenodd">
        <g>
            <g>
                <path fill="#142745" d="M46.148 21.873c-1.4 0-2.535 1.136-2.534 2.537 0 10.641-8.647 19.298-19.273 19.298S5.07 35.05 5.07 24.41c0-7.273 4.041-13.616 9.99-16.904l7.492 7.487c.725.725 1.815.94 2.761.548.946-.393 1.563-1.316 1.564-2.343V2.576c0-1.401-1.135-2.538-2.535-2.538-.983 0-1.948.066-2.901.18-.033.002-.066.008-.1.012C9.33 1.716 0 11.99 0 24.41c0 13.44 10.919 24.373 24.34 24.373S48.68 37.85 48.68 24.41c0-1.401-1.134-2.537-2.533-2.536" transform="translate(-390 -399) translate(390 399)"/>
                <path fill="#FF295B" d="M24.226 36.415c-.754 0-1.477-.297-2.01-.828L11.803 25.225c-1.083-1.11-1.07-2.879.029-3.973 1.099-1.094 2.876-1.106 3.99-.028l8.403 8.361 17.871-17.784c1.114-1.079 2.892-1.066 3.99.028 1.1 1.093 1.112 2.863.028 3.973l-19.88 19.785c-.532.53-1.255.829-2.009.828zm57.102-23.563v6.661h-13.75v4.484h10.605v6.643H67.577v9.578h-7.458V12.852h21.209zM94.36 30.524c-.473-.369-1.083-.674-1.83-.915-.748-.243-1.578-.5-2.494-.773-.932-.28-1.842-.628-2.722-1.041-.88-.406-1.71-.911-2.474-1.506-.748-.586-1.359-1.377-1.831-2.369-.475-.992-.71-2.137-.71-3.433 0-2.24.974-4.202 2.924-5.887 1.951-1.688 4.446-2.529 7.49-2.529 1.253 0 2.435.135 3.546.409 1.112.274 2.023.602 2.732.985.645.34 1.27.72 1.87 1.135.538.375.909.709 1.114 1l.363.383-4.332 4.503c-.18-.205-.368-.4-.568-.584-.25-.234-.766-.557-1.552-.962-.786-.41-1.582-.611-2.388-.611-.844 0-1.547.234-2.11.706-.562.47-.844 1.017-.844 1.64 0 .498.237.927.71 1.288.472.365 1.084.67 1.832.917.747.248 1.573.51 2.475.783.929.284 1.839.632 2.72 1.04.917.42 1.747.92 2.494 1.505.748.588 1.359 1.376 1.831 2.369.473.992.71 2.136.71 3.434 0 2.533-1.002 4.664-3.01 6.394C98.299 40.137 95.633 41 92.307 41c-1.322.004-2.64-.159-3.92-.487-1.26-.324-2.294-.716-3.107-1.172-.745-.417-1.465-.877-2.155-1.377-.628-.457-1.088-.852-1.383-1.181l-.421-.48 4.315-4.482c.05.077.143.178.278.305.133.126.396.363.787.705.39.344.8.648 1.235.908.435.26.98.492 1.63.696.632.201 1.293.305 1.956.307 1.049 0 1.903-.287 2.56-.862.66-.572.988-1.257.988-2.059 0-.497-.236-.93-.71-1.298zm23.103-10.038l-2.551 8.013h5.1l-2.549-8.012v-.001zm-4.527 13.874l-1.954 5.859h-8.055l10.412-27.365h8.246L132 40.22h-8.056l-1.975-5.86h-9.032z" transform="translate(-390 -399) translate(390 399)"/>
                <path fill="#142745" d="M150.135 27.23c-.116-.145-.24-.284-.372-.417-.172-.177-.531-.406-1.08-.69-.518-.276-1.095-.423-1.682-.427-.725 0-1.298.155-1.72.464-.421.31-.63.667-.63 1.07 0 .492.299.903.897 1.23.6.329 1.33.623 2.19.881.884.268 1.754.578 2.608.93.88.36 1.618.94 2.218 1.742.597.801.897 1.795.897 2.983 0 1.704-.679 3.13-2.036 4.28-1.356 1.15-3.22 1.723-5.59 1.723-.98.004-1.956-.117-2.905-.362-.917-.238-1.663-.53-2.236-.869-.521-.306-1.022-.644-1.5-1.013-.426-.336-.735-.616-.926-.845l-.268-.396 2.943-2.898c.102.15.263.344.486.579.225.233.692.547 1.405.946.713.397 1.453.597 2.219.597.84 0 1.473-.163 1.9-.484.427-.321.64-.742.64-1.258 0-.518-.3-.951-.897-1.298-.6-.347-1.338-.65-2.217-.91-.887-.26-1.759-.574-2.61-.936-.866-.371-1.619-.96-2.187-1.706-.6-.77-.899-1.741-.899-2.916 0-1.527.715-2.909 2.15-4.147 1.434-1.238 3.195-1.857 5.285-1.857 1.325 0 2.545.248 3.66.74 1.116.494 1.89.973 2.322 1.438l.669.739-2.734 3.087zM158.558 16h4.702v6.001h3.898v4.66h-3.898v7.555c0 .596.218 1.1.66 1.516.438.416.997.625 1.671.625.338 0 .674-.034 1.004-.104.327-.069.57-.142.736-.217l.228-.074v4.467c-1.043.39-2.223.58-3.535.569-4.039 0-6.057-2.198-6.057-6.59v-7.746h-3.327v-4.66h1.759c.598 0 1.107-.233 1.529-.7.421-.468.63-1.073.63-1.818V16v.001zm17.273 18.7c.93.965 2.033 1.45 3.307 1.45s2.376-.485 3.307-1.45c.93-.964 1.395-2.157 1.395-3.579 0-1.42-.465-2.618-1.395-3.589-.93-.971-2.033-1.458-3.307-1.458s-2.377.487-3.307 1.458c-.93.971-1.395 2.169-1.395 3.59 0 1.42.465 2.614 1.395 3.578zm10.447 3.334c-2.023 1.975-4.4 2.965-7.14 2.965-2.74 0-5.121-.99-7.15-2.965-2.025-1.975-3.037-4.284-3.037-6.922 0-2.639 1.012-4.947 3.039-6.921 2.027-1.976 4.409-2.965 7.148-2.965 2.74 0 5.117.988 7.14 2.965 2.017 1.975 3.028 4.282 3.028 6.921 0 2.638-1.011 4.946-3.028 6.922zm16.935-11.373c-.395-.126-.982-.195-1.76-.208-1.387 0-2.487.434-3.297 1.307-.807.87-1.211 2.122-1.211 3.75v9.108h-5.276V21.604h5.276v2.331c.152-.176.369-.408.649-.692s.896-.659 1.844-1.125c.927-.463 1.953-.704 2.991-.703h.784v5.248-.001zm7.726.002c-.784.644-1.333 1.483-1.653 2.517h8.81c-.184-.974-.7-1.856-1.461-2.5-.772-.656-1.72-.984-2.84-.984-1.12 0-2.073.322-2.855.967h-.001zm-1.653 6.192c.203 1.035.758 1.909 1.661 2.623.905.712 2.046 1.07 3.423 1.07.952.009 1.894-.188 2.761-.577.847-.386 1.443-.773 1.787-1.164l.553-.59 2.735 3.488-.355.348c-.159.157-.5.427-1.022.807-.525.38-1.08.72-1.662 1.012-.587.296-1.348.557-2.284.786-.936.226-1.901.34-2.895.34-2.816 0-5.22-.968-7.208-2.907-1.987-1.938-2.98-4.264-2.98-6.978 0-2.716.98-5.04 2.942-6.978 1.964-1.938 4.313-2.91 7.054-2.91 2.738 0 5.019.908 6.841 2.72 1.821 1.812 2.735 4.074 2.735 6.788l-.192 2.123h-13.894zm18.53-8.524h.79c.13.005.257-.04.352-.126.09-.08.14-.193.137-.312.003-.119-.047-.233-.137-.313-.095-.086-.222-.132-.352-.127h-.79v.878zm2.17 2.05h-.79l-.74-1.368h-.64v1.367h-.74v-3.61h1.53c.339 0 .629.115.87.346.24.232.36.507.36.826.002.193-.058.38-.173.536-.115.157-.229.261-.34.311l-.18.082.844 1.51h-.001zm.392-3.808c-.53-.541-1.26-.841-2.021-.831-.786 0-1.46.278-2.017.831-.546.524-.849 1.248-.836 2.002 0 .78.278 1.447.836 2 .529.54 1.258.84 2.017.83.789 0 1.46-.277 2.021-.83.546-.524.85-1.248.839-2 0-.783-.281-1.45-.839-2.002zm.575 4.492c-.7.68-1.565 1.02-2.596 1.02-1.032 0-1.894-.34-2.594-1.02-.698-.678-1.049-1.51-1.049-2.49 0-.983.35-1.814 1.05-2.494.699-.68 1.562-1.02 2.593-1.02s1.896.34 2.596 1.02c.698.68 1.047 1.512 1.047 2.494 0 .98-.35 1.812-1.047 2.49z" transform="translate(-390 -399) translate(390 399)"/>
            </g>
        </g>
    </g>
</svg>
