<?xml version="1.0" encoding="UTF-8"?>
<svg width="278px" height="28px" viewBox="0 0 278 28" version="1.1" xmlns="http://www.w3.org/2000/svg" xmlns:xlink="http://www.w3.org/1999/xlink">
    <title>Logo</title>
    <g id="Symbols" stroke="none" stroke-width="1" fill="none" fill-rule="evenodd">
        <g id="Header---1" transform="translate(-59.000000, -96.000000)" fill="#27251F">
            <g id="Logo" transform="translate(60.000000, 96.000000)">
                <path d="M16.5891365,14.8308804 C16.5891365,18.6306693 15.47838,22.4 7.88734398,22.4 C2.2950658,22.4 0,19.3661259 0,15.3828304 L0,14.2178457 L4.62778863,14.2178457 L4.62778863,15.3519515 C4.62778863,17.8339597 5.44282423,19.273994 8.25720476,19.273994 C11.2571866,19.273994 11.960006,17.7727909 11.960006,15.0461073 L11.960006,0 L16.5891365,0 L16.5891365,14.8308804" id="Fill-1"></path>
                <path d="M16.5088023,14.8049616 L16.4284681,14.8049616 C16.4285521,15.7442749 16.359058,16.6792442 16.138223,17.5513086 C15.8061301,18.8599481 15.1379949,20.0250676 13.8470176,20.8703995 C12.5556201,21.7153972 10.6328092,22.2404403 7.79010445,22.2403567 C5.00227236,22.2400226 3.05047057,21.4917631 1.79394617,20.2627363 C0.537421776,19.0336259 -0.0318922597,17.3158119 -0.032228386,15.3529779 L-0.032228386,14.2761592 L4.44388243,14.2761592 L4.44388243,15.322319 C4.44388243,15.9427637 4.4951417,16.500387 4.61791185,16.9897589 C4.80143685,17.7233155 5.14991586,18.3061676 5.72536421,18.6998037 C6.30047642,19.0936069 7.09356659,19.2961892 8.16068378,19.2962727 C8.91873277,19.2961892 9.53569272,19.2024583 10.036605,19.0159991 C10.4121422,18.8761547 10.7221348,18.6836807 10.9738934,18.4407491 C11.3517835,18.0763516 11.5963994,17.6006802 11.7458076,17.0281034 C11.8952998,16.4551924 11.9509287,15.7838724 11.9510128,15.0186545 L11.9510128,0.159643168 L16.4284681,0.159643168 L16.4284681,14.8049616 L16.5891365,14.8049616 L16.5891365,0 L11.7904284,0 L11.7904284,15.0186545 C11.7904284,15.6919794 11.7464799,16.287613 11.635222,16.7997911 C11.5517787,17.1840708 11.4306891,17.521151 11.2629621,17.8104468 C11.0110354,18.2441816 10.6560019,18.5720725 10.1534089,18.7958737 C9.650816,19.0194242 8.99873084,19.1366296 8.16068378,19.136546 C7.46246528,19.1366296 6.89205883,19.0479111 6.43055733,18.8795798 C5.73847313,18.6262058 5.28907218,18.1986528 5.00386896,17.6031863 C4.71925395,17.0075527 4.60429874,16.2400793 4.6044668,15.322319 L4.6044668,14.1165161 L-0.192896936,14.1165161 L-0.192896936,15.3529779 C-0.193232916,17.3450506 0.38717329,19.1108995 1.68125981,20.3766 C2.97526229,21.642384 4.97479403,22.400334 7.79010445,22.4 C9.69812578,22.4 11.2026274,22.1654222 12.387725,21.7517367 C14.1653292,21.1321274 15.223203,20.1040956 15.8277262,18.8759041 C16.4326697,17.6478797 16.5888844,16.2253764 16.5891365,14.8049616 L16.5088023,14.8049616" id="Fill-2"></path>
                <path d="M32.3170629,21.9717138 L32.3170629,19.7727418 L32.243802,19.7727418 C31.2081851,21.3611585 28.917336,22.4 26.8100997,22.4 C21.819396,22.4 19.6754875,20.3224009 19.6754875,16.1987413 L19.6754875,6.17931034 L23.8895413,6.17931034 L23.8895413,15.8628898 C23.8895413,18.6428077 25.2570512,19.6515367 27.5494912,19.6515367 C31.0608259,19.6515367 32.243802,17.7876613 32.243802,15.343511 L32.243802,6.17931034 L36.4575209,6.17931034 L36.4575209,21.9717138 L32.3170629,21.9717138 Z" id="Fill-3"></path>
                <path d="M36.5702196,21.8905885 L36.5702196,21.8102391 L32.5018368,21.8102391 L32.5018368,19.6069354 L32.3049484,19.6069354 L32.2812077,19.6433279 C31.7730898,20.4231201 30.9514773,21.0737314 29.9945512,21.5277556 C29.037793,21.981948 27.9466439,22.2394694 26.9040668,22.2393853 C25.6594841,22.2393853 24.594928,22.1097001 23.6996606,21.8526831 C22.3565079,21.4664851 21.3958907,20.7970472 20.7658815,19.8435289 C20.1360401,18.8898426 19.8358001,17.6454362 19.8358001,16.1060232 L19.8358001,6.14682156 L23.8977234,6.14682156 L23.8977234,15.7694973 C23.8977234,16.472386 23.9840456,17.0665174 24.1519082,17.563574 C24.403073,18.3090748 24.8416466,18.835632 25.4360028,19.1690482 C26.0301912,19.5028847 26.7750449,19.6459334 27.6448938,19.6460175 C28.5315206,19.6460175 29.2742771,19.5284351 29.8906123,19.3114246 C30.8152409,18.9864131 31.4546457,18.4345576 31.8573147,17.7311646 C32.2603193,17.0278556 32.4284336,16.1769593 32.4284336,15.2490755 L32.4284336,6.14682156 L36.4900213,6.14682156 L36.4900213,21.8905885 L36.5702196,21.8905885 L36.5702196,21.8102391 L36.5702196,21.8905885 L36.6504178,21.8905885 L36.6504178,5.9862069 L32.268121,5.9862069 L32.268121,15.2490755 C32.268121,15.8548895 32.1947178,16.42263 32.0318046,16.9322096 C31.7868476,17.6968732 31.3433245,18.3304228 30.6363888,18.7777233 C29.9292853,19.2247717 28.9539036,19.4854028 27.6448938,19.4854028 C27.0765433,19.4854028 26.5679221,19.4227875 26.1264123,19.2874711 C25.4637702,19.0839082 24.9524645,18.7206551 24.6007163,18.1524944 C24.2492199,17.5839975 24.058036,16.8045415 24.058036,15.7694973 L24.058036,5.9862069 L19.6754875,5.9862069 L19.6754875,16.1060232 C19.6754875,17.1458582 19.8105494,18.0599582 20.0940115,18.8473146 C20.5184918,20.0283493 21.2809623,20.92253 22.4075965,21.514224 C23.534063,22.1065063 25.0208343,22.4 26.9040668,22.4 C27.9729013,22.4 29.0850227,22.1370156 30.0631727,21.6729056 C31.0410711,21.2085435 31.885921,20.5428877 32.4154307,19.7311575 L32.3483192,19.6872007 L32.3483192,19.7675501 L32.4217224,19.7675501 L32.4217224,19.6872007 L32.3415242,19.6872007 L32.3415242,21.9709378 L36.6504178,21.9709378 L36.6504178,21.8905885 L36.5702196,21.8905885" id="Fill-4"></path>
                <path d="M43.7503267,16.9145163 C43.9719038,18.9262006 45.8166524,19.6582622 48.0678626,19.6582622 C49.6545086,19.6582622 52.4226763,19.3828082 52.3115952,17.5850777 C52.2011827,15.7558859 49.1383032,15.5432709 46.0754237,14.9642485 C42.9745978,14.4161018 39.9489961,13.5015477 39.9489961,10.3018635 C39.9489961,6.85944172 44.4515,5.79310345 47.9201724,5.79310345 C51.8325841,5.79310345 55.3751433,7.13355693 55.8914322,10.6374789 L51.5000094,10.6374789 C51.1300734,8.99144888 49.4702928,8.53484122 47.6247919,8.53484122 C46.408082,8.53484122 44.1561196,8.77883388 44.1561196,10.1500793 C44.1561196,11.8561871 47.2556082,12.1002634 50.3557655,12.6785327 C53.4186449,13.2588101 56.5188022,14.1726948 56.5188022,17.2802542 C56.5188022,21.0274158 51.9430801,22.4 47.9933906,22.4 C43.1968436,22.4 39.6170065,20.6323084 39.5438719,16.9145163 L43.7503267,16.9145163" id="Fill-5"></path>
                <path d="M43.8397014,16.8235868 L43.7601521,16.83239 C43.8167578,17.3477511 43.9783684,17.7851415 44.2258924,18.1485855 C44.5971782,18.6942126 45.1590475,19.0708194 45.8373937,19.3099295 C46.5160748,19.5492073 47.3129075,19.652749 48.1651736,19.6528328 C48.9491947,19.6525813 50.0182536,19.586935 50.901502,19.302887 C51.3430425,19.1604438 51.7393654,18.9635049 52.0295948,18.6863317 C52.3198241,18.409913 52.5007778,18.048062 52.4999405,17.5995209 C52.4999405,17.5637215 52.4988519,17.527419 52.496591,17.4905296 C52.4821884,17.2504973 52.4186327,17.0341915 52.3124553,16.8415285 C52.12631,16.5039909 51.8127183,16.2413219 51.4117898,16.0281182 C50.8096435,15.7084383 50.0061956,15.4959892 49.1009246,15.3136384 C48.1957373,15.1316229 47.1888106,14.9807958 46.1838937,14.7907317 L46.1836425,14.7907317 L46.1829726,14.7905641 C44.6328498,14.5169121 43.1062569,14.1504499 41.9769081,13.4615411 C41.4119406,13.1171287 40.9465353,12.6935718 40.6218067,12.161359 C40.2972456,11.6289785 40.1116026,10.9868522 40.1113514,10.1978391 C40.1118539,9.3531567 40.3860059,8.66030751 40.8524997,8.08743257 C41.5518636,7.22874895 42.6922656,6.6439688 43.9851511,6.27717122 C45.2776178,5.91012212 46.7202234,5.76021718 48.0172119,5.76030102 C49.9679282,5.76004951 51.8234365,6.09532346 53.2482063,6.86119681 C53.9608005,7.24400773 54.5657101,7.73379778 55.0244165,8.34280752 C55.4830392,8.95190111 55.7962959,9.68046591 55.9239097,10.5457728 L56.0031241,10.5341192 L56.0031241,10.4539687 L51.6036292,10.4539687 L51.6036292,10.5341192 L51.6816713,10.5165129 C51.5865471,10.092453 51.4068494,9.74150103 51.1612514,9.45678226 C50.7927288,9.02928492 50.279259,8.75227938 49.6865749,8.58200147 C49.0935558,8.41172355 48.4195639,8.34725101 47.7212885,8.34716717 C47.1063306,8.34741869 46.2322931,8.40803461 45.5019468,8.64513257 C45.1367737,8.76393307 44.8065185,8.92683311 44.5630976,9.15470873 C44.3195931,9.38174596 44.1653512,9.67962751 44.1661885,10.0457544 C44.166021,10.271534 44.2179374,10.4765215 44.3150713,10.6592915 C44.4853068,10.9795581 44.7891014,11.2290643 45.1841683,11.4336326 C45.7773549,11.7403173 46.5820588,11.9495806 47.4941962,12.1320152 C48.4061661,12.3141145 49.4252345,12.4682114 50.4425444,12.6580239 L50.4423769,12.65794 C51.9738265,12.947773 53.5102166,13.3220323 54.6542192,14.0038985 C55.226388,14.3447059 55.7000831,14.7611364 56.0309245,15.2808572 C56.3615984,15.8007456 56.5513444,16.4248464 56.5515956,17.1900491 C56.5512606,18.112283 56.2713308,18.8831029 55.7895133,19.5274929 C55.0670382,20.4936586 53.8834284,21.1740158 52.5077279,21.6104001 C51.1324462,22.0470359 49.5674184,22.2398667 48.0905647,22.2397828 C45.6975544,22.2401182 43.6126091,21.7977812 42.124786,20.9000284 C41.3806233,20.4512359 40.7855945,19.8895116 40.3716032,19.2120888 C39.957612,18.5345823 39.7236533,17.7406227 39.7054825,16.8219939 L39.6255146,16.8235868 L39.6255146,16.9037373 L43.8397014,16.9037373 L43.8397014,16.8235868 L43.7601521,16.83239 L43.8397014,16.8235868 L43.8397014,16.7434363 L39.5438719,16.7434363 L39.5454629,16.8251798 C39.5638848,17.7691281 39.8057147,18.5935214 40.2350297,19.2957606 C40.8791278,20.3496225 41.9414877,21.1258919 43.2913974,21.6379833 C44.6416421,22.1502423 46.281195,22.4 48.0905647,22.4 C50.0782924,22.3996646 52.2230252,22.0556714 53.8804139,21.2347994 C54.7089826,20.8240699 55.4163015,20.2933662 55.9175458,19.6235729 C56.4189576,18.9541987 56.7119502,18.1450642 56.7116992,17.1900491 C56.7116992,16.3983532 56.5134956,15.7403812 56.1659071,15.194754 C55.6442312,14.3757265 54.7936398,13.8124092 53.7898114,13.3985777 C52.7853968,12.9846624 51.6248982,12.7189752 50.4721033,12.5004896 L50.4719358,12.5004057 C48.9166214,12.2104889 47.364489,12.0039924 46.2098519,11.6594961 C45.6327426,11.4876252 45.1559493,11.2806256 44.8299646,11.018795 C44.6667629,10.8879216 44.5413263,10.7440531 44.4564178,10.5840875 C44.3715094,10.4239541 44.3263757,10.2473044 44.3262082,10.0457544 C44.3270456,9.72481698 44.4548269,9.47690373 44.672457,9.2717486 C44.9986091,8.96464471 45.533934,8.76896344 46.1018323,8.65569634 C46.6693956,8.54167469 47.2681925,8.50738436 47.7212885,8.5074682 C48.6392037,8.50721668 49.5071284,8.62190904 50.1832974,8.93496554 C50.5215076,9.09140995 50.8118206,9.29673276 51.0400852,9.56149773 C51.2682661,9.82643039 51.4354034,10.1511406 51.5255872,10.5517254 L51.5395711,10.6142697 L56.09582,10.6142697 L56.0822547,10.5224655 C55.9512914,9.63234206 55.6269815,8.87644561 55.1521978,8.24630832 C54.4399385,7.30076703 53.3920649,6.63935763 52.15612,6.21445931 C50.9197565,5.78956099 49.4938981,5.6 48.0172119,5.6 C46.2714816,5.60033536 44.2668393,5.867364 42.6884975,6.57236991 C41.8995359,6.92516631 41.2162493,7.38812774 40.7284865,7.98615451 C40.2405562,8.5837621 39.9509131,9.3178603 39.9513317,10.1978391 C39.9511643,11.0118363 40.1444272,11.6865762 40.4852331,12.2448631 C40.9966933,13.0828384 41.834473,13.6550426 42.8311838,14.0692933 C43.8284808,14.4837117 44.9878072,14.7419372 46.1550884,14.9484337 L46.1690724,14.869457 L46.1541673,14.9482661 C47.6911435,15.2386021 49.2246865,15.4373854 50.3788212,15.7894272 C50.955763,15.964987 51.4368269,16.1792807 51.7747858,16.4556155 C51.9439327,16.5937829 52.0774918,16.7469576 52.1722811,16.9189123 C52.2669866,17.0910347 52.3235922,17.2822724 52.3368225,17.5003389 C52.3389159,17.5340423 52.3399208,17.5670751 52.3399208,17.5995209 C52.3390834,18.0048846 52.1829993,18.3167674 51.9189794,18.5703817 C51.5233263,18.9502583 50.8758787,19.1855117 50.1810366,19.3200741 C49.4864456,19.4553071 48.7461347,19.4926156 48.1651736,19.4926156 C47.0460406,19.4928672 46.0324988,19.309678 45.2792088,18.8841928 C44.9023126,18.6715759 44.5902281,18.3991816 44.3581117,18.0583742 C44.1262464,17.7173992 43.9735955,17.3072566 43.9192507,16.8147837 L43.9113795,16.7434363 L43.8397014,16.7434363 L43.8397014,16.8235868" id="Fill-6"></path>
                <path d="M58.2548747,6.08263134 L61.4301139,6.08263134 L61.4301139,1.35172414 L65.6404881,1.35172414 L65.6404881,6.08263134 L69.4428969,6.08263134 L69.4428969,8.67742696 L65.6404881,8.67742696 L65.6404881,17.1000157 C65.6404881,18.5356557 65.7875999,19.2676393 67.6707812,19.2676393 C68.2605665,19.2676393 68.852359,19.2676393 69.4428969,19.1471226 L69.4428969,21.8322638 C68.5208348,21.892606 67.6335642,22.0137931 66.7109166,22.0137931 C62.316799,22.0137931 61.5032934,20.6108385 61.4301139,17.9866261 L61.4301139,8.67742696 L58.2548747,8.67742696 L58.2548747,6.08263134" id="Fill-7"></path>
                <path d="M58.1421646,6.1703644 L58.1421646,6.25061211 L61.4068448,6.25061211 L61.4068448,1.51221957 L65.4692002,1.51221957 L65.4692002,6.25061211 L69.282607,6.25061211 L69.282607,8.68901784 L65.4692002,8.68901784 L65.4692002,17.2051807 C65.4692002,17.5660436 65.4782589,17.8849359 65.522714,18.1637044 C65.5561811,18.3727178 65.6097789,18.5596547 65.6967598,18.7230881 C65.8266022,18.9686998 66.0345345,19.1572316 66.3401842,19.2775192 C66.6460015,19.3983944 67.0486136,19.4563138 67.5855135,19.4564817 C68.1769338,19.4563977 68.7761547,19.4569014 69.3788145,19.3340955 L69.3627939,19.2555266 L69.282607,19.2555266 L69.282607,21.9449163 L69.3627939,21.9449163 L69.3575096,21.8648365 C68.4291534,21.9256098 67.5410584,22.046569 66.6228514,22.0464851 C65.5253142,22.046569 64.6539947,21.9588505 63.9656959,21.7881982 C63.4494298,21.6602719 63.036417,21.4860102 62.706359,21.268099 C62.2116495,20.9409805 61.900464,20.5172457 61.7032679,19.9885845 C61.5064913,19.4600911 61.4272271,18.825832 61.406761,18.0909274 L61.326658,18.0931939 L61.4068448,18.0931939 L61.4068448,8.68901784 L58.2222676,8.68901784 L58.2223515,6.1703644 L58.1421646,6.1703644 L58.1421646,6.25061211 L58.1421646,6.1703644 L58.0619777,6.1703644 L58.0619777,8.84942933 L61.2464711,8.84942933 L61.2464711,18.094369 L61.2465549,18.0954603 C61.2650919,18.7564127 61.3299292,19.3439166 61.488877,19.8560414 C61.608067,20.2400721 61.7807708,20.5817964 62.0262802,20.8766815 C62.3945863,21.3193031 62.9250277,21.653053 63.6704471,21.8742379 C64.4162858,22.0956746 65.3786124,22.2068966 66.6228514,22.2068966 C67.5552337,22.2068966 68.4470193,22.085014 69.3679943,22.0249961 L69.4428969,22.0200436 L69.4428969,19.1572316 L69.3467733,19.1768738 C68.7649151,19.2956505 68.1771015,19.2961541 67.5855135,19.2959862 C67.1184835,19.2961541 66.7628429,19.2503223 66.4954414,19.1629395 C66.2947226,19.0973815 66.1439947,19.0092434 66.0281598,18.8994484 C65.8549528,18.7348398 65.7554741,18.5175162 65.6983535,18.2347186 C65.6414845,17.9525085 65.6294062,17.6080142 65.6294901,17.2051807 L65.6294901,8.84942933 L69.4428969,8.84942933 L69.4428969,6.09020062 L65.6294901,6.09020062 L65.6294901,1.35172414 L61.2464711,1.35172414 L61.2464711,6.09020062 L58.0619777,6.09020062 L58.0619777,6.1703644 L58.1421646,6.1703644" id="Fill-8"></path>
                <polyline id="Fill-9" points="73.1079387 0.386206897 90.468663 0.386206897 90.468663 2.92534986 76.5231795 2.92534986 76.5231795 9.38679191 88.7965346 9.38679191 88.7965346 11.9273615 76.5231795 11.9273615 76.5231795 21.4344828 73.1079387 21.4344828 73.1079387 0.386206897"></polyline>
                <polyline id="Fill-10" points="73.0232507 0.493153574 73.0232507 0.793119863 90.2529181 0.793119863 90.2529181 2.72973844 76.1708547 2.72973844 76.1708547 9.78489861 88.5644031 9.78489861 88.5644031 11.7228586 76.1708547 11.7228586 76.1708547 21.2205894 73.3243566 21.2205894 73.3243566 0.493153574 73.0232507 0.493153574 73.0232507 0.793119863 73.0232507 0.493153574 72.7221448 0.493153574 72.7221448 21.8206897 76.7730664 21.8206897 76.7730664 12.322875 89.1667832 12.322875 89.1667832 9.18479836 76.7730664 9.18479836 76.7730664 3.32983869 90.8544568 3.32983869 90.8544568 0.193103448 72.7221448 0.193103448 72.7221448 0.493153574 73.0232507 0.493153574"></polyline>
                <path d="M103.347293,17.8575419 C104.101548,16.577753 104.480352,15.1532741 104.480352,13.5841886 C104.480352,12.1667942 104.207982,11.0140257 103.65989,10.1252162 C102.797525,8.72682484 101.307452,8.02687904 99.1938613,8.02687904 C97.3149281,8.02687904 95.9505644,8.62314151 95.0957419,9.81433291 C94.2451097,11.0049409 93.8185366,12.4417551 93.8185366,14.1223585 C93.8185366,15.739785 94.2451097,17.0860013 95.0957419,18.162591 C95.9505644,19.2403475 97.3023571,19.7780172 99.1569867,19.7780172 C101.193475,19.7780172 102.590524,19.138081 103.347293,17.8575419 Z M105.203598,7.75650226 C106.825247,9.06304553 107.63649,10.9872714 107.63649,13.5267628 C107.63649,15.9808237 106.921624,18.0080661 105.491892,19.6104903 C104.063835,21.2109141 101.848001,22.0137931 98.8427137,22.0137931 C96.3369106,22.0137931 94.3473532,21.3040957 92.8723654,19.8867847 C91.3973777,18.4694736 90.6615599,16.5685848 90.6615599,14.1810345 C90.6615599,11.6213733 91.4367665,9.58304575 92.9938843,8.06863574 C94.5451357,6.55355897 96.6319081,5.79310345 99.2525256,5.79310345 C101.599097,5.79310345 103.584464,6.44795867 105.203598,7.75650226 L105.203598,7.75650226 Z" id="Fill-11"></path>
                <path d="M103.439255,17.8988581 L103.697076,18.0513778 C104.478911,16.7119668 104.871503,15.2143092 104.870667,13.5808072 C104.870667,12.8454955 104.801188,12.1732634 104.658047,11.5637742 C104.515743,10.9545375 104.299776,10.4078753 104.006797,9.9281667 C103.548913,9.1742427 102.911893,8.59928301 102.118339,8.22307897 C101.323948,7.84603275 100.378882,7.66395236 99.2906746,7.66395236 C98.320496,7.66395236 97.4683461,7.81950392 96.7400844,8.14113437 C96.0109856,8.46200685 95.4099605,8.95182164 94.9537506,9.59651425 L94.9504022,9.60114627 L94.9529135,9.59701956 C94.5092598,10.2257107 94.1752639,10.9208501 93.9534371,11.6770481 C93.7316102,12.4333302 93.6219524,13.2502496 93.6219524,14.1246061 C93.6219524,14.9680543 93.7316102,15.7479176 93.9551112,16.4612483 C94.1777751,17.1744948 94.5142823,17.8207033 94.9621214,18.3933049 L94.9621214,18.393726 C95.4216796,18.9803921 96.0201936,19.4225392 96.7400844,19.7114929 C97.4599753,20.0010361 98.2987319,20.1408388 99.2538429,20.1408388 C100.30187,20.1406703 101.203408,19.9747599 101.95176,19.6281165 C102.325098,19.4547949 102.660768,19.2359952 102.95291,18.9723071 C103.245052,18.7087032 103.493665,18.4004635 103.697076,18.051462 L103.439255,17.8988581 L103.180597,17.7462542 C103.006483,18.0442192 102.79805,18.3020121 102.552785,18.5235909 C102.184468,18.8555803 101.732444,19.107562 101.184155,19.278694 C100.636703,19.4496575 99.9929867,19.538087 99.2538429,19.5380027 C98.3564906,19.538087 97.5939085,19.4061166 96.9627484,19.1517767 C96.3307511,18.8968473 95.8268275,18.522833 95.4325617,18.0204696 L95.4333988,18.0208907 C95.0307621,17.5056419 94.7294125,16.9277346 94.5268385,16.2802628 C94.3242646,15.6329594 94.2213034,14.915502 94.2213034,14.1246061 C94.2213034,13.3008649 94.3242646,12.54273 94.5285127,11.8476747 C94.7319237,11.1526195 95.0366217,10.5203912 95.4417696,9.94610524 L95.4417696,9.94661055 C95.8385467,9.38756816 96.3449815,8.9743922 96.9803271,8.69310241 C97.6156726,8.41248638 98.3832772,8.26670415 99.2906746,8.26678837 C100.313589,8.26670415 101.16825,8.43834145 101.862192,8.7681411 C102.556133,9.09886714 103.09354,9.58404991 103.496177,10.2432281 C103.751487,10.6616256 103.944853,11.1463873 104.075438,11.7020609 C104.205185,12.2576504 104.271315,12.8838991 104.271315,13.5808072 C104.271315,15.1183001 103.907184,16.4993993 103.180597,17.7464226 L103.439255,17.8988581 Z M105.293393,7.69216555 L105.105049,7.92629298 C105.877676,8.55666845 106.451915,9.32869943 106.839484,10.2567873 C107.226216,11.1847067 107.423767,12.271378 107.423767,13.5227807 C107.423767,14.7336743 107.249654,15.8309571 106.905613,16.8195138 C106.560735,17.8080706 106.04593,18.6889961 105.357848,19.4701226 C104.678974,20.2389533 103.815105,20.8170291 102.748662,21.2075503 C101.683056,21.5976504 100.414039,21.7972482 98.939937,21.797164 C97.7169596,21.797164 96.6295896,21.6219895 95.6736414,21.2772832 C94.7168562,20.93224 93.8906559,20.418844 93.1841583,19.7325475 C92.4784978,19.0457456 91.9528101,18.2470174 91.5995613,17.3259197 C91.2471496,16.4048219 91.068014,15.3595861 91.068014,14.1838959 C91.068014,12.9207026 91.2571946,11.7966383 91.6296963,10.8065656 C92.0038721,9.81632454 92.5605319,8.95855912 93.3072094,8.22299475 L93.3080465,8.22257366 C94.0530499,7.48700929 94.9219414,6.9366414 95.9264403,6.56683797 C96.9301021,6.19745563 98.0693713,6.00964838 99.3492703,6.00964838 C100.493562,6.0097326 101.542426,6.17101102 102.499211,6.49045179 C103.456834,6.81006099 104.323214,7.28757988 105.105049,7.92612454 L105.105049,7.92629298 L105.293393,7.69216555 L105.482573,7.45820656 C104.646328,6.77452079 103.712144,6.26002998 102.687555,5.91827131 C101.663803,5.5763442 100.548809,5.40689655 99.3492703,5.40689655 C98.0116126,5.40689655 96.8003544,5.6032099 95.720518,6.00072122 C94.6406817,6.39789566 93.6931044,6.99711028 92.8878311,7.79246979 L92.8886682,7.79204869 C92.0808837,8.58681867 91.4723248,9.52400213 91.0696881,10.5927349 C90.6670515,11.6616361 90.468663,12.8605706 90.468663,14.1838959 C90.468663,15.420813 90.6570065,16.5421823 91.0403902,17.5426139 C91.4229369,18.5430454 92.0013609,19.4207706 92.7681284,20.1660201 C93.5357329,20.9120276 94.4397819,21.4731754 95.4710675,21.8447474 C96.502353,22.2166563 97.660038,22.4 98.939937,22.4 C100.467612,22.4 101.806107,22.1939173 102.953747,21.7740881 C104.101387,21.35468 105.058172,20.7184934 105.805687,19.8702447 C106.544831,19.0321864 107.101491,18.0792541 107.470644,17.018859 C107.839797,15.9584639 108.023118,14.7916166 108.022284,13.5227807 C108.023118,12.2081299 107.815522,11.0395982 107.391958,10.0237547 C106.969232,9.0080796 106.328864,8.14787185 105.482573,7.45803813 L105.482573,7.45820656 L105.293393,7.69216555 L105.293393,7.69216555 Z" id="Fill-12"></path>
                <path d="M123.021721,17.8575419 C123.776163,16.577753 124.15506,15.1532741 124.15506,13.5841886 C124.15506,12.1667942 123.882623,11.0140257 123.33691,10.1252162 C122.471817,8.72682484 120.983053,8.02687904 118.867264,8.02687904 C116.989544,8.02687904 115.624843,8.62314151 114.772324,9.81433291 C113.918129,11.0049409 113.492289,12.4417551 113.492289,14.1223585 C113.492289,15.739785 113.918129,17.0860013 114.772324,18.162591 C115.624843,19.2403475 116.978646,19.7780172 118.83038,19.7780172 C120.867372,19.7780172 122.264765,19.138081 123.021721,17.8575419 Z M124.878485,7.75650226 C126.500534,9.06304553 127.311978,10.9872714 127.311978,13.5267628 C127.311978,15.9808237 126.596935,18.0080661 125.166849,19.6104903 C123.738441,21.2109141 121.522898,22.0137931 118.518545,22.0137931 C116.009608,22.0137931 114.021236,21.3040957 112.548399,19.8867847 C111.070532,18.4694736 110.337047,16.5685848 110.337047,14.1810345 C110.337047,11.6213733 111.112445,9.58304575 112.666595,8.06863574 C114.218229,6.55355897 116.306355,5.79310345 118.925105,5.79310345 C121.273094,5.79310345 123.258951,6.44795867 124.878485,7.75650226 L124.878485,7.75650226 Z" id="Fill-13"></path>
                <path d="M122.920753,17.8988581 L123.178635,18.0513778 C123.960657,16.7119668 124.353342,15.2143092 124.352506,13.5808072 C124.352506,12.8454955 124.28301,12.1732634 124.140672,11.5639426 C123.998335,10.9547902 123.782316,10.4082964 123.491779,9.92875623 L123.490942,9.92774561 C123.031274,9.17415848 122.394102,8.59928301 121.600359,8.22307897 C120.805778,7.84603275 119.860487,7.66395236 118.771183,7.66395236 C117.80161,7.66395236 116.950094,7.81950392 116.221659,8.14113437 C115.493223,8.46200685 114.892055,8.95199008 114.437411,9.59685113 L114.437411,9.59643003 C113.991139,10.2252896 113.656227,10.9206817 113.434347,11.6770481 C113.212467,12.4334144 113.102783,13.2502496 113.102783,14.1246061 C113.102783,14.9679701 113.212467,15.7478334 113.436021,16.4613325 C113.658738,17.1747474 113.996163,17.8211244 114.445784,18.3938102 L114.445784,18.3933049 C114.903777,18.9803078 115.502434,19.4225392 116.222496,19.7114929 C116.941721,20.0010361 117.780678,20.1408388 118.734342,20.1408388 C119.783457,20.1406703 120.684372,19.9747599 121.432902,19.6281165 C121.80633,19.4547949 122.14208,19.2359952 122.434292,18.9723071 C122.726503,18.7087032 122.975176,18.4004635 123.178635,18.0515462 L122.920753,17.8988581 L122.662032,17.7462542 C122.487878,18.0442192 122.279394,18.3020121 122.034071,18.5235909 C121.665667,18.8555803 121.213534,19.107562 120.665115,19.278694 C120.117532,19.4496575 119.4745,19.538087 118.734342,19.5380027 C117.83845,19.538087 117.076524,19.4061166 116.444376,19.1517767 C115.813065,18.8968473 115.309859,18.5229172 114.917173,18.0208065 L114.916336,18.0203854 C114.512766,17.5052208 114.210507,16.9275662 114.007048,16.2802628 C113.804426,15.6330436 113.70144,14.9155862 113.70144,14.1246061 C113.702277,13.3007807 113.805263,12.5426458 114.008722,11.8477589 C114.213019,11.1527879 114.51779,10.5208123 114.925546,9.94661055 L114.925546,9.94618946 C115.321581,9.38748394 115.827299,8.97430798 116.462796,8.6930182 C117.097456,8.41248638 117.865243,8.26670415 118.771183,8.26678837 C119.795179,8.26670415 120.650044,8.43834145 121.34415,8.7681411 C122.038257,9.09886714 122.57663,9.58413413 122.981037,10.243565 L122.9802,10.2426386 C123.233896,10.6612045 123.427308,11.1461346 123.557087,11.7018925 C123.686866,12.2575662 123.753011,12.8838149 123.753011,13.5808072 C123.753011,15.1183001 123.388793,16.4993993 122.662032,17.7464226 L122.920753,17.8988581 Z M124.775332,7.69216555 L124.586944,7.92629298 C125.359755,8.55666845 125.934131,9.32869943 126.321792,10.2567873 C126.708617,11.1847067 126.906215,12.271378 126.906215,13.5227807 C126.906215,14.7336743 126.73206,15.8309571 126.3871,16.8195138 C126.042977,17.8080706 125.528049,18.6889961 124.839803,19.4701226 C124.160767,20.2389533 123.296692,20.8170291 122.230832,21.2075503 C121.165809,21.5976504 119.897327,21.7972482 118.422873,21.797164 C117.198767,21.797164 116.1103,21.6219895 115.154961,21.2772832 C114.198785,20.9323242 113.373225,20.4189282 112.668234,19.7327159 L112.667396,19.7324633 C111.96073,19.0455772 111.43408,18.2471016 111.081584,17.3260039 C110.729089,16.4049904 110.550747,15.3596704 110.550747,14.1838959 C110.550747,12.9207026 110.739973,11.7965541 111.112564,10.8063972 C111.485991,9.8161561 112.041947,8.95830647 112.787128,8.2227421 L112.787128,8.22257366 C113.532309,7.48700929 114.402245,6.9366414 115.406146,6.56683797 C116.410885,6.19745563 117.550425,6.00964838 118.828955,6.00964838 C119.97352,6.0097326 121.022634,6.17101102 121.980485,6.49045179 C122.938335,6.81006099 123.804922,7.28757988 124.586944,7.92612454 L124.586944,7.92629298 L124.775332,7.69216555 L124.964558,7.45820656 C124.128113,6.77452079 123.193706,6.26002998 122.168873,5.91827131 C121.14404,5.5763442 120.029618,5.40689655 118.828955,5.40689655 C117.491816,5.40689655 116.281106,5.60329412 115.201012,6.00072122 C114.120081,6.39789566 113.172278,6.99711028 112.367649,7.79246979 L112.367649,7.79230135 C111.561347,8.58707132 110.954317,9.52417056 110.552422,10.5929033 C110.149689,11.6617203 109.951253,12.8605706 109.951253,14.1838959 C109.951253,15.4206446 110.139642,16.5420139 110.52228,17.5425296 C110.904918,18.5429612 111.48348,19.420939 112.251267,20.1662728 L112.251267,20.1659359 C113.01738,20.9119433 113.920808,21.4731754 114.952339,21.8447474 C115.983871,22.2166563 117.141832,22.4 118.422873,22.4 C119.950076,22.4 121.288053,22.1939173 122.435966,21.7740039 C123.583043,21.35468 124.540056,20.7184934 125.287749,19.8702447 C126.027069,19.0321864 126.583862,18.0792541 126.953103,17.018859 C127.322344,15.9584639 127.505709,14.7916166 127.504875,13.5227807 C127.504875,12.2081299 127.297226,11.0395982 126.874398,10.0237547 C126.451571,9.0080796 125.81105,8.14787185 124.964558,7.45803813 L124.964558,7.45820656 L124.775332,7.69216555 L124.775332,7.69216555 Z" id="Fill-14"></path>
                <path d="M134.290855,18.097814 C135.11653,19.2091371 136.44683,19.7628687 138.276727,19.7628687 C139.695881,19.7628687 140.862723,19.2484916 141.776414,18.21915 C142.690943,17.1904796 143.14695,15.7143096 143.14695,13.7920663 C143.14695,11.8488452 142.676693,10.410771 141.734501,9.47775966 C140.790634,8.54558747 139.626307,8.0777812 138.24152,8.0777812 C136.696628,8.0777812 135.445123,8.57638297 134.484491,9.57165656 C133.524696,10.5668462 133.045218,12.0311848 133.045218,13.9633296 C133.045218,15.6093364 133.458474,16.9877496 134.290855,18.097814 Z M141.214787,6.5740882 C141.762164,6.86014229 142.383306,7.36201661 143.076537,8.0777812 L143.076537,0.386206897 L146.022981,0.386206897 L146.022981,21.5047024 L143.288614,21.5047024 L143.288614,19.3311444 C142.569397,20.2778332 141.716898,20.9628023 140.736986,21.3826113 C139.757912,21.8012454 138.631306,22.0137931 137.366389,22.0137931 C135.323577,22.0137931 133.554873,21.2934134 132.059438,19.8527379 C130.564003,18.4145797 129.819638,16.4989655 129.819638,14.1063147 C129.819638,11.8698231 130.498619,9.9292032 131.859935,8.2890702 C133.22125,6.64952458 135.165148,5.82819941 137.69582,5.82819941 C139.097372,5.82819941 140.271758,6.076829 141.214787,6.5740882 L141.214787,6.5740882 Z" id="Fill-15"></path>
                <path d="M134.199051,18.1877473 L133.957944,18.3667263 C134.401647,18.9652791 134.988508,19.4174632 135.697596,19.7127157 C136.406684,20.0086389 137.236326,20.1512354 138.179823,20.1512354 C138.924073,20.1514029 139.613906,20.0155968 140.237602,19.7402961 C140.861299,19.4652468 141.417184,19.0512897 141.89856,18.5082329 L141.89856,18.5084006 C142.386634,17.9597272 142.749968,17.2932713 142.988563,16.5211046 C143.227159,15.7485188 143.343526,14.8699707 143.343526,13.8861309 C143.343526,12.8913093 143.22381,12.0156953 142.976006,11.2591212 C142.729039,10.50305 142.351472,9.86551583 141.843306,9.36269792 L141.843306,9.36244643 C141.346024,8.87102954 140.785116,8.49731126 140.165605,8.24892023 C139.546095,8.00019386 138.869657,7.87729768 138.144662,7.87729768 C137.340973,7.87729768 136.604258,8.00731949 135.93954,8.2718899 C135.274822,8.53612498 134.684613,8.9351602 134.177284,9.46128309 L134.176447,9.46145076 C133.663258,9.99360948 133.280668,10.6507601 133.029516,11.4189867 C132.778363,12.1876325 132.655298,13.0673543 132.655298,14.0572298 C132.655298,14.9044252 132.761619,15.6895018 132.978448,16.4097772 C133.194439,17.1298848 133.521775,17.7846882 133.958781,18.3678161 L133.957944,18.3667263 L134.199051,18.1877473 L134.438483,18.0075946 C134.044173,17.4817232 133.749487,16.8935654 133.551914,16.2367501 C133.35434,15.5801025 133.254716,14.8543781 133.254716,14.0572298 C133.254716,13.1168145 133.371921,12.299966 133.598795,11.6060135 C133.826507,10.911642 134.163052,10.3402504 134.607593,9.87809046 L134.607593,9.87825813 C135.059668,9.4100624 135.574531,9.06291853 136.160555,8.8294494 C136.746578,8.59639942 137.405435,8.47744333 138.144662,8.4773595 C138.802682,8.47744333 139.399589,8.58810016 139.942916,8.80589291 C140.485407,9.02402098 140.976829,9.3496203 141.422207,9.78956501 L141.422207,9.78931351 C141.855027,10.2185279 142.184037,10.7654408 142.406726,11.4459803 C142.629415,12.1261844 142.744945,12.9395121 142.744108,13.8861309 C142.744945,14.82269 142.633601,15.6416344 142.415935,16.3434669 C142.198269,17.0456347 141.876793,17.6304393 141.451508,18.1094492 L141.450671,18.1097007 C141.020362,18.5949979 140.537312,18.9521177 139.995659,19.1912035 C139.454843,19.4297863 138.852913,19.5510058 138.179823,19.5511735 C137.295765,19.5512573 136.546493,19.4171278 135.928657,19.1589286 C135.309984,18.8999748 134.820235,18.5204722 134.43932,18.0086844 L134.438483,18.0075946 L134.199051,18.1877473 Z M141.114126,6.6750784 L140.975992,6.94090627 C141.47746,7.20271025 142.080227,7.68482192 142.75834,8.38623528 L143.273203,8.9175557 L143.273203,0.793165225 L145.616459,0.793165225 L145.616459,21.2913359 L143.485009,21.2913359 L143.485009,18.5301966 L142.947542,19.2382326 C142.25436,20.1487203 141.446485,20.7956436 140.518894,21.193589 C139.583768,21.5933787 138.501299,21.7998543 137.27065,21.7999381 C136.285294,21.7997704 135.374446,21.6267434 134.528898,21.2822821 C133.682513,20.9375694 132.900591,20.4208355 132.178107,19.7247873 L132.178107,19.7246197 C131.461485,19.0349426 130.928203,18.2363692 130.570729,17.3191751 C130.214092,16.4019809 130.033262,15.3643217 130.033262,14.2000777 C130.033262,13.1132098 130.197349,12.1048914 130.525522,11.1701765 C130.852858,10.2355455 131.343443,9.37367978 132.0023,8.58022005 C132.652786,7.79648471 133.435546,7.21352444 134.363974,6.82136337 C135.291566,6.42970528 136.368174,6.22993618 137.59966,6.22993618 C138.964257,6.22985234 140.087748,6.47254288 140.975155,6.94057095 L140.975992,6.9409901 L140.975992,6.94090627 L141.114126,6.6750784 L141.253934,6.40958585 C140.256857,5.88404977 139.033743,5.62995823 137.59966,5.6298744 C136.303712,5.62979057 135.14506,5.84037386 134.131239,6.26841457 C133.116582,6.69603613 132.249267,7.34237258 131.541016,8.19669356 C130.839463,9.0417093 130.311205,9.96854403 129.959591,10.9714972 C129.607977,11.9744505 129.433844,13.0526 129.433844,14.2000777 C129.433844,15.4261889 129.62472,16.5406372 130.012333,17.5371355 C130.400782,18.5335499 130.985969,19.4103375 131.762868,20.1573549 L131.762868,20.1571873 C132.533907,20.9004323 133.381967,21.4631054 134.302861,21.8380812 C135.223754,22.2133084 136.215808,22.4 137.27065,22.4 C138.567436,22.4 139.733622,22.1818718 140.75414,21.7453642 C141.784704,21.3042458 142.678808,20.5826292 143.423895,19.6015559 L143.1853,19.4198943 L142.885591,19.4198943 L142.885591,21.8913977 L146.215877,21.8913977 L146.215877,0.193103448 L142.673785,0.193103448 L142.673785,8.17732861 L142.973494,8.17732861 L143.188648,7.96842194 C142.482072,7.23967969 141.843306,6.7190058 141.253097,6.40925053 L141.253934,6.40958585 L141.114126,6.6750784 L141.114126,6.6750784 Z" id="Fill-16"></path>
                <polyline id="Fill-17" points="149.880919 1.93103448 166.85585 1.93103448 166.85585 4.29272126 153.214239 4.29272126 153.214239 10.3820402 165.18919 10.3820402 165.18919 12.7443983 153.214239 12.7443983 153.214239 21.8206897 149.880919 21.8206897 149.880919 1.93103448"></polyline>
                <path d="M179.619117,18.4479962 C180.354753,17.2291036 180.723829,15.8668366 180.723829,14.3704452 C180.723829,13.0193622 180.457088,11.9188691 179.926121,11.0726659 C179.085634,9.73806468 177.634494,9.06937658 175.577733,9.06937658 C173.750806,9.06937658 172.421292,9.6381651 171.59171,10.7742285 C170.762127,11.9115533 170.348594,13.2817248 170.348594,14.8839862 C170.348594,16.4283092 170.762127,17.7116993 171.59171,18.741304 C172.421292,19.7694793 173.739062,20.2823476 175.54418,20.2823476 C177.52461,20.2823476 178.883481,19.6722706 179.619117,18.4479962 Z M181.452755,8.82088899 C183.037266,10.0667747 183.83078,11.8984351 183.83078,14.3165431 C183.83078,16.6545128 183.132052,18.5860729 181.734595,20.1127369 C180.339655,21.6380555 178.171332,22.4 175.235498,22.4 C172.787013,22.4 170.843492,21.7255097 169.401578,20.3770335 C167.959664,19.0279687 167.241643,17.21464 167.241643,14.9398223 C167.241643,12.5032985 167.99825,10.5638339 169.517334,9.11873774 C171.035579,7.67490291 173.075564,6.95172414 175.635611,6.95172414 C177.929755,6.95172414 179.868244,7.57500333 181.452755,8.82088899 L181.452755,8.82088899 Z" id="Fill-18"></path>
                <path d="M186.724234,7.32313048 L189.701534,7.32313048 L189.701534,9.68353861 C189.938612,9.21411646 190.51581,8.64132609 191.437315,7.96516751 C192.357983,7.28917619 193.419389,6.95172414 194.620697,6.95172414 C194.676825,6.95172414 194.770651,6.95632386 194.905526,6.96610871 C195.040401,6.973301 195.271615,6.99036177 195.597493,7.01377852 L195.597493,9.49202307 C195.41403,9.46785364 195.246483,9.45137829 195.093178,9.44167706 C194.938198,9.43448478 194.769814,9.43122316 194.587188,9.43122316 C193.038221,9.43122316 191.846128,9.82872244 191.012585,10.6264808 C190.180717,11.4241556 189.764364,12.3421757 189.764364,13.3831338 L189.764364,21.8206897 L186.724234,21.8206897 L186.724234,7.32313048" id="Fill-19"></path>
                <path d="M207.855749,19.4582477 C208.957555,19.4582477 209.864232,19.3638507 210.573257,19.1762315 C211.838231,18.8252425 212.873592,18.1547302 213.681864,17.1601635 C214.325285,16.362446 214.789557,15.3403574 215.072158,14.0933103 C215.236167,13.3486229 215.31691,12.6598186 215.31691,12.0221145 C215.31691,9.57643535 214.724795,7.67658059 213.543087,6.32255019 C212.358855,4.97044968 210.452983,4.29272126 207.824629,4.29272126 L202.048137,4.29272126 L202.048137,19.4582477 L207.855749,19.4582477 Z M198.683844,1.93103448 L208.515991,1.93103448 C211.854211,1.93103448 214.442194,2.90059644 216.283304,4.84114679 C217.925079,6.59349052 218.745125,8.83510433 218.745125,11.5694285 C218.745125,13.6832497 218.260667,15.5922505 217.29091,17.2979412 C215.58269,20.3136942 212.647344,21.8206897 208.481507,21.8206897 L198.683844,21.8206897 L198.683844,1.93103448 L198.683844,1.93103448 Z" id="Fill-20"></path>
                <path d="M233.052833,18.4479962 C233.789233,17.2291036 234.156595,15.8668366 234.156595,14.3704452 C234.156595,13.0193622 233.891558,11.9188691 233.359806,11.0726659 C232.519404,9.73806468 231.069249,9.06937658 229.011019,9.06937658 C227.182599,9.06937658 225.855736,9.6381651 225.025399,10.7742285 C224.195061,11.9115533 223.782409,13.2817248 223.782409,14.8839862 C223.782409,16.4283092 224.195061,17.7116993 225.025399,18.741304 C225.855736,19.7694793 227.172534,20.2823476 228.978308,20.2823476 C230.958537,20.2823476 232.317271,19.6722706 233.052833,18.4479962 Z M234.886285,8.82088899 C236.469798,10.0667747 237.263231,11.8984351 237.263231,14.3165431 C237.263231,16.6545128 236.563735,18.5860729 235.168936,20.1127369 C233.773298,21.6380555 231.605194,22.4 228.670496,22.4 C226.22142,22.4 224.276417,21.7255097 222.836327,20.3770335 C221.396237,19.0279687 220.674095,17.21464 220.674095,14.9398223 C220.674095,12.5032985 221.433141,10.5638339 222.950394,9.11873774 C224.469324,7.67490291 226.507425,6.95172414 229.068891,6.95172414 C231.362803,6.95172414 233.299418,7.57500333 234.886285,8.82088899 L234.886285,8.82088899 Z" id="Fill-21"></path>
                <path d="M251.018319,10.55448 C250.099398,9.68443881 248.928257,9.24941823 247.500692,9.24941823 C245.366912,9.24941823 243.906559,10.0554637 243.121314,11.667471 C242.705992,12.5271525 242.49665,13.6565184 242.49665,15.0510572 C242.49665,16.690551 242.911131,17.9395538 243.737572,18.7945568 C244.562331,19.6521497 245.668735,20.079317 247.06267,20.079317 C249.239328,20.079317 250.772825,19.2883933 251.661479,17.7017002 C252.152467,16.8055929 252.398802,15.759104 252.398802,14.5637373 C252.398802,12.7596592 251.938921,11.4245211 251.018319,10.55448 Z M250.703044,7.96582764 C251.277264,8.27611503 251.864937,8.72483704 252.461857,9.31600386 L252.461857,7.51710562 L255.202646,7.51710562 L255.202646,20.694712 C255.202646,22.5353829 254.864672,23.9861477 254.194607,25.0500976 C252.93519,27.016922 250.562641,28 247.069396,28 C245.127303,28 243.496281,27.6511982 242.170446,26.9523414 C240.845451,26.2508112 240.105606,25.1585395 239.945026,23.6686754 L243.05826,23.6686754 C243.205388,24.2937617 243.497122,24.7758183 243.935985,25.1167668 C244.621182,25.6354163 245.701524,25.8967461 247.17701,25.8967461 C249.504159,25.8967461 251.025885,25.2487684 251.746393,23.955403 C252.172645,23.1938037 252.371058,21.8332679 252.337429,19.8742132 C251.729579,20.6110831 250.994778,21.1597253 250.140593,21.520307 C249.283046,21.8788836 248.149738,22.0598428 246.738988,22.0598428 C244.780081,22.0598428 243.062463,21.5046005 241.591181,20.3902728 C240.12158,19.2766134 239.385097,17.4339374 239.385097,14.8655866 C239.385097,12.4409337 240.126624,10.5479634 241.609677,9.18667568 C243.09273,7.82547147 244.88265,7.14482759 246.982801,7.14482759 C248.401958,7.14482759 249.642039,7.41843857 250.703044,7.96582764 L250.703044,7.96582764 Z" id="Fill-22"></path>
                <path d="M260.633266,17.3539781 C260.719679,18.1350952 260.973047,18.7346609 261.386658,19.1502364 C262.14844,19.9049491 263.468134,20.2823476 265.349097,20.2823476 C266.467439,20.2823476 267.454064,20.0890234 268.303937,19.7011977 C269.155488,19.3145494 269.580005,18.7148996 269.580005,17.903678 C269.580005,17.2895647 269.236868,16.822778 268.553949,16.5006271 C268.117687,16.3053688 267.252712,16.0772312 265.960704,15.8136073 L263.557064,15.3270593 C262.020078,15.019372 260.886634,14.6755257 260.158411,14.2968659 C258.858013,13.6374278 258.207814,12.7268953 258.207814,11.5598866 C258.207814,10.187781 258.820259,9.07526292 260.04515,8.22720968 C261.272558,7.37781098 262.91945,6.95172414 264.992536,6.95172414 C267.699042,6.95172414 269.652156,7.59207371 270.850201,8.87344559 C271.59772,9.68676944 271.964348,10.5604703 271.943374,11.4993414 L269.083337,11.4993414 C269.025448,10.9556959 268.788021,10.4625889 268.364343,10.0168249 C267.673034,9.38757525 266.47499,9.06937658 264.771888,9.06937658 C263.635927,9.06937658 262.778503,9.24495766 262.192066,9.59410165 C261.606467,9.94316154 261.315346,10.4047346 261.315346,10.9786526 C261.315346,11.6065568 261.697076,12.1075683 262.467247,12.4835372 C262.914416,12.707134 263.574683,12.9056718 264.447208,13.0766279 L266.443948,13.4697512 C268.611838,13.8944926 270.067445,14.3060318 270.801541,14.7045369 C271.976094,15.3270593 272.56337,16.3060416 272.56337,17.644595 C272.56337,18.9358055 271.957637,20.0521917 270.740296,20.9910628 C269.525473,21.9299338 267.673034,22.4 265.185499,22.4 C262.511712,22.4 260.612292,21.9154702 259.498144,20.947672 C258.385674,19.9798738 257.789169,18.7820039 257.710306,17.3539781 L260.633266,17.3539781" id="Fill-23"></path>
                <path d="M275.122002,18.8540232 L275.296838,18.8540232 C275.501524,18.8540232 275.666126,18.7884347 275.666126,18.6282078 C275.666126,18.4879784 275.559519,18.3939984 275.326688,18.3939984 C275.229462,18.3939984 275.161233,18.4029685 275.122002,18.4126792 L275.122002,18.8540232 Z M275.111767,19.7175368 L274.742479,19.7175368 L274.742479,18.1778114 C274.889171,18.1592129 275.093004,18.1308214 275.355685,18.1308214 C275.657598,18.1308214 275.793203,18.1778114 275.89981,18.2530284 C275.997036,18.3186992 276.065265,18.4312777 276.065265,18.5812178 C276.065265,18.7690956 275.920279,18.8913848 275.734355,18.9480033 L275.734355,18.9666018 C275.890429,19.0135918 275.968892,19.1352227 276.017505,19.3423573 C276.065265,19.5765667 276.10535,19.6614944 276.134347,19.7175368 L275.745442,19.7175368 C275.695977,19.6614944 275.666126,19.5295767 275.618366,19.3423573 C275.589369,19.1822127 275.492143,19.1074895 275.287456,19.1074895 L275.111767,19.1074895 L275.111767,19.7175368 Z M274.129272,18.919694 C274.129272,19.6048759 274.664868,20.1498284 275.374448,20.1498284 C276.065265,20.1588808 276.592333,19.6048759 276.592333,18.9286641 C276.592333,18.2433999 276.065265,17.6894774 275.355685,17.6894774 C274.664868,17.6894774 274.129272,18.2433999 274.129272,18.919694 Z M277,18.919694 C277,19.7831253 276.280186,20.4689655 275.365067,20.4689655 C274.449948,20.4689655 273.720752,19.7831253 273.720752,18.919694 C273.720752,18.0555222 274.449948,17.3793103 275.374448,17.3793103 C276.280186,17.3793103 277,18.0555222 277,18.919694 L277,18.919694 Z" id="Fill-24"></path>
            </g>
        </g>
    </g>
</svg>