<svg width="64" height="40" viewBox="0 0 64 40" fill="none" xmlns="http://www.w3.org/2000/svg">
<path d="M52.9731 12.8118C53.0756 12.3125 53.1746 11.8136 53.2689 11.3184C54.6748 3.93794 44.223 1.43399 42.0191 10.2653C41.7747 11.2454 41.5659 12.1166 41.3844 12.9101C41.7127 10.5199 41.9596 8.31199 42.0813 6.50814C42.5729 -0.776436 30.8247 -2.75101 29.0075 4.76513C28.4752 6.96651 28.0196 9.93154 27.6553 13.2276C27.6829 10.7678 27.6779 8.72242 27.6146 7.779C27.2711 2.69286 23.5596 1.58935 20.813 1.58935C16.2617 1.58935 14.4049 5.64907 14.4049 9.23302C14.4049 9.44875 14.4115 10.0315 14.4332 10.9007C11.8429 9.80988 9.15168 11.5547 7.7716 14.7793C6.38384 18.0214 6.38746 23.105 8.656 26.4124C10.5774 29.2142 13.9221 30.2214 15.7719 28.6156C16.7942 35.2998 18.7179 36.9553 20.8811 37.2111C23.6247 37.5356 25.5894 35.9655 26.5794 32.6936C26.7449 36.572 27.7335 39.8107 31.4005 39.9264C34.0537 40.0103 36.8163 36.0221 38.1206 30.5852C38.3058 29.8132 38.4951 28.9842 38.6855 28.1129C38.2398 32.9216 39.8419 34.8396 41.8904 35.2616C45.4384 35.9924 47.3893 32.7357 48.8682 28.4768C52.8546 31.9879 57.1683 27.9682 59.2851 23.723C60.3079 21.6718 61.273 19.0656 61.7244 16.1391C62.6312 10.2608 56.6536 8.1286 52.9731 12.8118Z" fill="#F8643C"/>
<path d="M7.46639 19.2018L10.5277 14.0315H8.98011C8.43581 14.0315 8.0446 14.3205 7.77257 14.7798L5.64649 18.3513C5.32335 18.8786 4.88126 19.0826 4.38807 19.0826H2.22807V14.9329C2.22807 14.4225 1.83686 14.0315 1.34367 14.0315H0V26.4131H2.22807V21.1406H3.99686C4.43895 21.1406 4.84711 21.1067 5.2044 21.0045L8.65697 26.4131H11.3271L7.05822 19.7969C7.21131 19.6099 7.33026 19.4229 7.46639 19.2018ZM20.4773 19.0826H14.4735V15.0179C14.4735 14.4225 14.0823 14.0315 13.4871 14.0315H12.2457V26.4131H14.4735V21.1748H20.4773V26.4131H22.7053V14.0315H20.4773V19.0826ZM28.3179 14.0315L23.4197 26.4131H25.6817L26.9062 23.1645H32.2295L33.1481 25.6137C33.3351 26.1239 33.7602 26.4131 34.2706 26.4131H35.8013L30.8861 14.0315H28.3179ZM41.1416 14.0315L36.2094 26.4131H37.672C38.1824 26.4131 38.6075 26.1239 38.7946 25.6137L39.6959 23.1645H45.0195L46.244 26.4131H48.591L43.6928 14.0315H41.1416ZM53.8635 14.0315H49.2714V26.4131H53.8635C57.7923 26.4131 60.2754 23.7938 60.2754 20.2051C60.2754 16.5825 57.9453 14.0315 53.8635 14.0315ZM63.0136 14.0315H61.7719V26.4131H64V15.0179C64 14.4225 63.6088 14.0315 63.0136 14.0315ZM27.5525 21.2087L29.5594 16.0212L31.5663 21.2087H27.5525ZM40.3594 21.2087L42.3663 16.0212L44.3732 21.2087H40.3594ZM53.8293 24.3211H51.5164V16.0893H53.8635C56.5336 16.0893 58.0132 17.6711 58.0132 20.2051C58.0132 22.7733 56.5167 24.3211 53.8293 24.3211Z" fill="#332E20"/>
</svg>
