<svg xmlns="http://www.w3.org/2000/svg" class="logo-path" viewBox="0 0 237 44" fill="none">
    <path class="logo-path" d="M234.014 6.35647C232.666 6.35647 230.987 5.64844 230.987 3.46634C230.987 1.60252 232.322 0.531578 233.998 0.531578C235.456 0.531578 237 1.33673 237 3.46634C237 5.31566 235.693 6.35647 234.014 6.35647ZM234.014 0.804082C232.58 0.804082 231.356 1.57353 231.356 3.42061C231.356 5.71661 233.2 6.08737 234.087 6.08737C235.542 6.08737 236.652 5.17164 236.652 3.4675C236.652 1.62154 235.343 0.804082 234.014 0.804082ZM235.519 5.11023C235.225 5.11023 235.076 5.05325 234.915 4.90473C234.915 4.90473 234.33 4.30727 233.953 3.70088C233.953 3.70088 233.645 3.6886 233.452 3.66292V4.50047C233.452 4.83661 233.69 4.8746 233.9 4.8746V5.11023C233.653 5.11023 233.606 5.08337 233.193 5.08337C232.777 5.08337 232.736 5.0968 232.485 5.0968V4.87119C232.7 4.87119 232.944 4.83322 232.944 4.49597V2.39432C232.944 2.0459 232.624 2.0191 232.422 2.0191V1.79015C232.563 1.79015 232.796 1.80133 233.206 1.80133C233.618 1.80133 233.654 1.79016 233.895 1.78122C234.731 1.76001 235.195 2.08389 235.195 2.66124C235.195 3.17717 234.71 3.46635 234.484 3.58249C234.484 3.58249 235.519 4.90587 235.813 4.83663V5.07226C235.813 5.07226 235.723 5.11023 235.519 5.11023ZM233.895 2.04589C233.709 2.04589 233.452 2.07159 233.452 2.07159V3.42729C233.607 3.46191 233.806 3.47977 234.006 3.47977C234.391 3.47977 234.636 3.13471 234.636 2.71147C234.636 2.28935 234.439 2.04589 233.895 2.04589Z" fill="black"/>
    <path class="logo-path" d="M29.4315 5.22079C29.4315 6.57427 28.27 7.66978 26.8406 7.66978C25.4123 7.66978 24.2319 6.57315 24.2319 5.22079C24.2319 3.87624 25.4123 2.78291 26.8406 2.78291C28.27 2.78291 29.4315 3.87624 29.4315 5.22079Z" fill="black"/>
    <path class="logo-path" d="M226.901 30.8655C226.901 32.2301 225.751 33.3066 224.323 33.3066C222.871 33.3066 221.713 32.2312 221.713 30.8655C221.713 29.5198 222.87 28.4153 224.323 28.4153C225.751 28.4153 226.901 29.5198 226.901 30.8655Z" fill="black"/>
    <path class="logo-path" d="M32.1619 32.9001V31.2619C30.6074 31.2619 28.9647 31.0899 28.9647 28.5304V12.4382H27.4705C25.887 12.9664 23.4335 13.5516 21.7148 13.632V15.2625C23.2939 15.7415 23.6513 15.7873 25.3577 16.1547V28.5304C25.3577 31.0519 23.8992 31.2619 22.1448 31.2619V32.9001C23.1878 32.9001 25.0182 32.8063 27.1668 32.8063C29.3064 32.8063 30.8843 32.9001 32.1619 32.9001Z" fill="black"/>
    <path class="logo-path" d="M63.8182 5.22079C63.8182 6.57427 62.6389 7.66978 61.2028 7.66978C59.7868 7.66978 58.6265 6.57315 58.6265 5.22079C58.6265 3.87624 59.7868 2.78291 61.2028 2.78291C62.6389 2.78291 63.8182 3.87624 63.8182 5.22079Z" fill="black"/>
    <path class="logo-path" d="M66.5564 32.9001V31.2619C64.9639 31.2619 63.3391 31.0899 63.3391 28.5304V12.4382H61.8293C60.2424 12.9664 57.8102 13.5516 56.0938 13.632V15.2625C57.6773 15.7415 58.0189 15.7873 59.7342 16.1547V28.5304C59.7342 31.0519 58.2747 31.2619 56.5058 31.2619V32.9001C57.5443 32.9001 59.3926 32.8063 61.5333 32.8063C63.6842 32.8063 65.2721 32.9001 66.5564 32.9001Z" fill="black"/>
    <path class="logo-path" d="M225.54 1.84932C224.18 0.684564 222.467 0 220.173 0C216.162 0 211.538 3.09004 211.538 10.4649V13.632H208.269V15.8263H211.538V28.5304C211.538 31.0553 210.079 31.2619 208.3 31.2619V32.9001C209.583 32.9001 211.359 32.8063 213.499 32.8063C215.649 32.8063 217.366 32.9001 218.649 32.9001V31.2619C216.929 31.2619 215.135 31.0899 215.135 28.5304V15.8263H220.612V13.632H215.135V9.7826C215.135 5.36033 215.859 2.91916 219.123 2.91916C221.212 2.91916 222.505 3.78129 223.451 4.42229L225.54 1.84932Z" fill="black"/>
    <path class="logo-path" d="M109.95 36.4558C109.95 38.821 107.415 40.7832 103.395 40.7832C99.5878 40.7832 96.4129 39.3202 96.4129 36.6211C96.4129 35.118 98.0333 33.7008 99.0752 33.2832C100.996 33.4965 102.057 33.626 103.776 33.7488C107.245 34.0615 109.95 34.1732 109.95 36.4558ZM107.68 19.6389C107.68 22.2208 106.359 24.7782 102.793 24.7782C100.127 24.7782 98.1271 22.8629 98.1271 19.5496C98.1271 17.0269 99.6168 14.4573 102.826 14.4573C105.489 14.4573 107.68 16.292 107.68 19.6389ZM113.651 15.6052V13.632H107.645C106.532 13.1205 105.458 12.4382 102.963 12.4382C98.375 12.4382 94.4307 15.4043 94.4307 19.6803C94.4307 23.8859 97.7664 25.6905 98.4722 26.0322C97.5631 26.4979 94.6998 28.2177 94.6998 29.8906C94.6998 31.4797 96.108 32.2948 97.3967 32.7628C96.0734 33.4976 93.4111 35.2084 93.4111 38.0394C93.4111 40.9016 96.8853 43.2724 102.185 43.2724C108.72 43.2724 112.834 38.7607 112.834 34.9527C112.834 31.0508 108.764 30.9615 104.851 30.612C101.306 30.3138 98.126 30.1976 98.126 28.7291C98.126 27.6157 99.4135 26.805 100.052 26.5515C100.052 26.5515 100.565 26.8519 102.923 26.8519C106.877 26.8519 111.252 24.4018 111.252 19.6378C111.252 17.3719 110.418 16.5132 109.948 15.6042H113.651V15.6052Z" fill="black"/>
    <path class="logo-path" d="M19.64 32.9001C19.64 32.9001 19.5652 30.8855 19.5652 29.5868C19.5652 28.3137 19.64 26.2846 19.64 26.2846H18.0185C18.0185 29.8102 16.8996 30.7058 12.6906 30.7058C8.22699 30.7058 6.99186 30.7482 6.99186 27.7017V7.59269C6.99186 5.14369 8.90817 5.23415 10.217 5.23415V3.60376C8.90817 3.60376 7.25322 3.69305 5.10239 3.69305C2.96385 3.69305 1.28648 3.60376 0 3.60376V5.23415C1.28648 5.23415 3.21061 5.14369 3.21061 7.59269V28.9089C3.21061 31.359 1.28648 31.2619 0 31.2619V32.9001C1.28648 32.9001 3.10007 32.8063 5.23415 32.8063C7.38163 32.8063 14.2362 32.8443 19.64 32.9001Z" fill="black"/>
    <path class="logo-path" d="M54.3011 14.8749V13.2568C53.0169 13.2568 52.2698 13.3383 50.11 13.3383C47.9581 13.3383 47.1831 13.2568 45.8977 13.2568V14.8749C47.6566 14.8749 48.4841 15.6511 48.4841 16.8214C48.4841 17.2056 48.3523 17.6232 48.1848 18.1034L43.9725 28.9089L39.1426 17.2435C38.4748 15.7371 39.214 14.8749 41.9534 14.8749V13.2568C40.6736 13.2568 39.0801 13.3729 36.9382 13.3383C34.7907 13.3383 33.2072 13.3383 31.9185 13.2568V14.8749C33.301 14.8749 34.249 15.0123 34.7907 16.3356L41.6452 32.8912H44.6112L50.378 18.1347C51.3987 15.4824 52.7734 14.8369 54.3011 14.8749Z" fill="black"/>
    <path class="logo-path" d="M92.3742 32.9001V31.2619C90.7829 31.2619 89.1625 31.0899 89.1625 28.5304V18.9186C89.1625 13.3729 84.6464 12.4382 82.7245 12.4382C78.4352 12.4382 76.3055 15.0123 75.8678 15.5204V12.4382H74.4529C72.866 12.9664 70.407 13.5516 68.7129 13.632V15.2625C70.3087 15.7415 70.6471 15.7873 72.3601 16.1547V28.5304C72.3601 31.0519 70.8838 31.2619 69.1283 31.2619V32.9001C70.1714 32.9001 72.0028 32.8063 74.1447 32.8063C76.3056 32.8063 77.8857 32.9001 79.1733 32.9001V31.2619C77.5909 31.2619 75.9404 31.0899 75.9404 28.5304V17.2871C76.5155 16.4596 78.4753 15.3138 80.6988 15.3138C83.5911 15.3138 85.5588 16.9845 85.5588 19.6803V28.5304C85.5588 31.0519 84.0981 31.2619 82.3415 31.2619V32.9001C83.36 32.9001 85.2126 32.8063 87.3423 32.8063C89.4976 32.8063 91.0811 32.9001 92.3742 32.9001Z" fill="black"/>
    <path class="logo-path" d="M141.134 23.1656C141.134 28.8754 138.417 31.138 134.912 31.138C131.867 31.138 130.319 29.5879 130.319 29.5879V16.9074C130.62 16.5187 132.034 15.1485 134.912 15.1485C138.477 15.1496 141.134 18.0208 141.134 23.1656ZM145.063 22.137C145.063 17.2446 142.357 12.4393 136.591 12.4393C132.47 12.4393 130.658 14.5868 130.244 15.1028V12.4393H128.825C127.233 12.9676 124.782 13.5706 123.064 13.6331V15.2725C124.654 15.756 125.009 15.794 126.711 16.1815V38.5642C126.711 41.0914 125.259 41.3002 123.498 41.3002V42.9307C124.781 42.9307 126.539 42.8536 128.696 42.8536C130.834 42.8536 132.548 42.9307 133.821 42.9307V41.3002C132.13 41.3002 130.319 41.1338 130.319 38.5642V32.4166C130.319 32.4166 131.566 33.2329 134.824 33.2329C139.89 33.234 145.063 29.3411 145.063 22.137Z" fill="black"/>
    <path class="logo-path" d="M161.963 16.4305V12.6995C161.465 12.5208 160.911 12.4304 160.343 12.4304C157.511 12.4304 155.151 14.876 154.643 16.2172V12.4304H153.233C151.642 12.9564 149.199 13.546 147.489 13.6343V15.2646C149.073 15.7437 149.414 15.7895 151.132 16.1569V28.5326C151.132 31.0542 149.688 31.2641 147.907 31.2641V32.9023C149.199 32.9023 150.96 32.8007 153.091 32.8007C155.248 32.8007 156.966 32.9023 158.246 32.9023V31.2641C156.528 31.2641 154.742 31.0922 154.742 28.5326V17.9694C155.8 16.6371 157.337 16.1256 159.494 16.1256C160.551 16.1234 161.19 16.292 161.963 16.4305Z" fill="black"/>
    <path class="logo-path" d="M179.116 22.7646C179.116 26.6263 177.939 31.2183 173.15 31.2183C168.469 31.2183 167.007 26.8351 167.007 22.8026C167.007 19.1598 168.292 14.4785 173.102 14.4785C177.841 14.4796 179.116 19.2034 179.116 22.7646ZM183.131 22.7166C183.131 16.6237 179.588 12.4304 173.184 12.4304C167.988 12.4304 162.935 16.6238 162.935 23.0215C162.935 29.5812 167.008 33.2731 172.882 33.2731C178.342 33.272 183.131 29.3244 183.131 22.7166Z" fill="black"/>
    <path class="logo-path" d="M202.066 22.7546C202.066 26.6274 200.917 31.2105 196.11 31.2105C191.444 31.2105 189.976 26.8296 189.976 22.8038C189.976 19.161 191.27 14.4796 196.069 14.4796C200.786 14.4796 202.066 19.2034 202.066 22.7546ZM206.095 22.7166C206.095 16.6237 202.541 12.4271 196.166 12.4271C190.965 12.4271 185.912 16.6237 185.912 23.0148C185.912 29.5812 189.976 33.2731 195.858 33.2731C201.291 33.272 206.095 29.3244 206.095 22.7166Z" fill="black"/>
</svg>