<svg xmlns="http://www.w3.org/2000/svg" width="269.281" height="22.161" viewBox="0 0 269.281 22.161">
    <path d="M92.15 48.517c2.268-.567 2.268-2.5 2.268-7.338V30.07c0-1.735-.534-2.568-1.9-2.769v-.267c2.169.033 3.7.033 4.6.033 1.8 0 3.47-.067 5.037-.067 4.036 0 7.139.4 9.774 2.2a9.567 9.567 0 0 1 4.27 8.207 11.236 11.236 0 0 1-3.536 8.439c-2.469 2.268-5.571 3-9.941 3-1.9 0-3.935-.2-6.071-.2-1.168 0-2.668.033-4.5.133zm6.037-7.338c0 6.3.033 6.905 4.47 6.905 5.838 0 9.141-3.7 9.141-10.342 0-7.038-3.136-9.973-9.874-9.973-1 0-2.236 0-3.737.133z" transform="translate(-92.15 -27)"/>
    <path d="M367.177 77c5.5 0 9.232 3.753 9.232 8.532 0 4.8-3.9 8.631-9.157 8.631-5.4 0-9.232-3.777-9.232-8.631S361.747 77 367.177 77zm.075 16.638c3.4 0 5.88-2.827 5.88-8.057s-2.3-8.057-5.955-8.057c-3.628 0-5.855 2.777-5.855 8.032 0 5.204 2.301 8.082 5.93 8.082z" transform="translate(-331.451 -72.004)"/>
    <path d="M567.2 77c5.5 0 9.232 3.753 9.232 8.532 0 4.8-3.9 8.631-9.157 8.631-5.4 0-9.232-3.777-9.232-8.631S561.768 77 567.2 77zm.076 16.638c3.4 0 5.879-2.827 5.879-8.057s-2.3-8.057-5.955-8.057c-3.628 0-5.855 2.777-5.855 8.032-.002 5.204 2.3 8.082 5.928 8.082z" transform="translate(-511.482 -72.004)"/>
    <path d="M750.412 90.433c0 3.9.125 5.83 2.152 6.754v.175c-1.025-.05-1.8-.1-2.352-.1-.875 0-1.752.05-2.652.1v-.175c2.077-.9 2.2-3.077 2.2-7.28v-5.529c0-1.676-.125-2.551-1.676-3.152v-.2c1.025.025 1.776.05 2.251.05.526 0 1.276 0 2.227-.025a128.209 128.209 0 0 0 10.859 11.283v-4.028c0-4.177-.025-6.2-2.152-7.13V81c1.026.05 1.8.1 2.352.1.876 0 1.751-.05 2.652-.1v.176c-2.052.85-2.2 2.927-2.2 7.13v9.457h-.225c-2.9-3.528-7.355-8.381-13.435-14.535v6.68l-.001.525z" transform="translate(-682.062 -75.604)"/>
    <path d="M953.8 81.535h10.06l1.3 3.527-.175.075c-2.452-3-5.079-3.027-8.957-3.027h-.2c-.425 0-.975 0-1.676.025v6.655c.775.025 1.3.049 1.551.049h2.2c2.4 0 3.8-.45 4.529-2.2h.15v5h-.15c-.626-1.676-2.052-2.227-4.529-2.227h-2.426c-.125 0-.551.025-1.325.05v3.5a10.605 10.605 0 0 0 .275 3.428c.426.775 1.326.775 3.053.775 3.853 0 6.5-.626 8.456-3.277l.175.025-1.3 3.828h-13.333c-.176 0-.8 0-1.878.025v-.2c1.651-.3 1.727-1.777 1.727-5.454v-8.326c0-1.3-.425-1.952-1.426-2.077v-.2c1.149.026 2.45.026 3.899.026z" transform="translate(-863.912 -76.063)"/>
    <path d="M1122.2 96.947c1.651-.4 1.726-1.8 1.726-5.5v-1.329l-3.926-5.23c-1.376-1.827-2.452-3.228-3.677-3.928v-.2c1.05.05 2.027.1 2.9.1 1.075 0 2.2-.05 3.4-.1v.2c-.8.175-1.177.5-1.177 1.1s.476 1.2 1.2 2.127l3.879 4.829c2.677-3.778 4.253-5.88 4.253-6.805 0-.626-.376-.975-1.176-1.251v-.2c.726.05 1.451.1 2.227.1s1.551-.05 2.351-.1v.2c-1.6.85-3.952 3.828-7.431 8.856v1.626c0 3.728.125 5.079 1.751 5.5v.2c-1.351-.05-2.426-.075-3.253-.075-.95 0-1.977.025-3.052.075v-.2z" transform="translate(-1013.972 -75.387)"/>
    <path d="M1361.36 88.62a9.782 9.782 0 0 1-5.724 1.9c-3.743 0-6.166-2.065-6.166-4.4 0-2.091 1.459-3.77 4.4-5.009a6.9 6.9 0 0 1-1.4-3.77 4.365 4.365 0 0 1 4.679-4.376c2.2 0 3.8 1.459 3.8 3.22 0 1.707-1.458 3.331-4.266 4.349a60.773 60.773 0 0 0 5.5 5.366 4.283 4.283 0 0 0 .55-1.954 2.619 2.619 0 0 0-2.477-2.642v-.193h4.9a10.39 10.39 0 0 1-1.982 5.532 30.714 30.714 0 0 0 4.486 3.247v.221c-1.074-.027-2.174-.055-3.331-.055h-1.293zm-7.155-7.044a3.5 3.5 0 0 0-1.624 3.109 4.767 4.767 0 0 0 5.009 4.734 4.27 4.27 0 0 0 3.082-1.293 61.887 61.887 0 0 1-6.467-6.551zm4.348-4.982c0-1.762-.99-2.972-2.256-2.972a2.133 2.133 0 0 0-2.092 2.311c0 1.211.688 2.587 2.037 4.156a3.587 3.587 0 0 0 2.311-3.495z" transform="translate(-1223.822 -68.367)"/>
    <path d="M1603.07 48.451c2.2-.4 2.3-2.368 2.3-7.272V30.07c0-1.7-.468-2.535-1.9-2.769v-.267c2.335.033 3.9.033 4.737.033 1.7 0 3.636-.067 5.771-.067 6.772 0 10.141 1.435 10.141 4.938 0 2.768-2.268 4.4-6.871 4.97 5.8.468 8.74 2.369 8.74 5.7 0 4.069-3.7 6.171-11.109 6.171-1.334 0-3.8-.1-7.406-.1-1.467 0-2.935 0-4.4.034zm7.472-11.708h2.235c4.871 0 7.34-1.6 7.34-4.671 0-3.036-2.5-4.336-7.406-4.336-.867 0-2.068.033-3.57.133v8.84c.801.033 1.267.033 1.401.033zm-1.367 4.469a32.635 32.635 0 0 0 .233 5.371c.3 1.3 1.7 1.434 4.6 1.434 5.071 0 7.706-1.9 7.706-5.3 0-3.836-2.969-5.238-8.773-5.238h-1.7c-.6 0-1.3.034-2.068.067v3.669z" transform="translate(-1452.08 -27)"/>
    <path d="M1865.087 77c5.5 0 9.232 3.753 9.232 8.532 0 4.8-3.9 8.631-9.157 8.631-5.4 0-9.232-3.777-9.232-8.631s3.727-8.532 9.157-8.532zm.075 16.638c3.4 0 5.879-2.827 5.879-8.057s-2.3-8.057-5.954-8.057c-3.628 0-5.855 2.777-5.855 8.032 0 5.204 2.301 8.082 5.93 8.082z" transform="translate(-1679.67 -72.004)"/>
    <path d="M2066.561 87.815c0-3.853-.025-5.93-2.151-6.855v-.176c1.025.05 1.8.1 2.351.1.876 0 1.751-.05 2.652-.1v.176c-2.052.85-2.2 2.927-2.2 7.13v2.427c0 4.754-2.251 7.03-7.2 7.03-5.5 0-7.431-2.1-7.431-6.731 0-1.8.05-3.152.05-4.078v-3.776c0-1.151-.375-1.727-1.425-2v-.2c1.1.075 2.051.1 2.852.1s1.776-.025 2.877-.1v.2c-1.05.225-1.451.825-1.451 2v5.5a19.015 19.015 0 0 0 .451 5.2c.625 1.9 2.426 3.077 4.927 3.077 3.678 0 5.7-2.077 5.7-6.1v-2.824z" transform="translate(-1855.425 -75.387)"/>
    <path d="M2242.7 97.622c1.676-.426 1.7-1.852 1.7-5.5v-8.336c0-1.3-.426-1.952-1.426-2.077v-.2c.8.025 2.376.025 4.754.025h3.277c5.178 0 7.931 1 7.931 3.852 0 2.326-2.2 3.827-6.3 3.928 2.677.325 4.277 1.275 5.228 3.328 1.15 2.527 1.426 4.528 2.9 4.879v.279c-.975-.025-1.752-.05-2.376-.05-.225 0-.875 0-1.951.025-1.1-2.577-1.475-4.754-2.376-6.179-1.2-1.9-2.752-2.178-5.18-2.178h-.449c-.125 0-.5.025-1.177.05v2.652c0 3.728.1 5.079 1.727 5.5v.2c-1.376-.05-2.452-.075-3.252-.075-.951 0-1.953.025-3.028.075v-.2zm5.679-8.782a25.642 25.642 0 0 0 4.529-.25 3.253 3.253 0 0 0 2.776-3.153c0-2.376-1.951-3.328-5.679-3.328-1.126 0-2.027.025-2.752.05v6.631c.653.025 1.027.05 1.127.05z" transform="translate(-2027.789 -76.063)"/>
    <path d="M2448.6 84.753c1.7-1.476 2.6-2.427 2.6-3.1 0-.425-.2-.575-.776-.676v-.2c1.027.05 1.9.076 2.577.076q1.088 0 2.552-.076v.2a23.947 23.947 0 0 0-5.579 3.653l-4.328 3.452c3 .075 4.428.8 5.854 2.777 1.726 2.4 2.927 4.9 4.854 6.08v.2c-.975-.05-1.827-.075-2.577-.075-.35 0-1.025.025-1.977.075-3.277-5.179-4.553-8.306-6.33-8.306-.8 0-1.15.5-1.15 1.551v1.051c0 3.728.1 5.079 1.726 5.5v.2c-1.375-.05-2.452-.075-3.252-.075-.952 0-1.976.025-3.052.075v-.2c1.651-.4 1.726-1.8 1.726-5.5v-8.483c0-1.151-.375-1.727-1.426-2v-.2c1.1.075 2.051.1 2.852.1s1.776-.025 2.877-.1v.2c-1.051.225-1.451.825-1.451 2v5.578z" transform="translate(-2205.138 -75.379)"/>
    <path d="M2625.711 81.535h10.058l1.3 3.527-.175.075c-2.452-3-5.078-3.027-8.957-3.027h-.2c-.426 0-.976 0-1.677.025v6.655c.777.025 1.3.049 1.552.049h2.2c2.4 0 3.8-.45 4.528-2.2h.15v5h-.15c-.626-1.676-2.051-2.227-4.528-2.227h-2.427c-.125 0-.55.025-1.326.05v3.5a10.625 10.625 0 0 0 .276 3.428c.426.775 1.326.775 3.052.775 3.853 0 6.506-.626 8.457-3.277l.175.025-1.3 3.828h-13.334c-.176 0-.8 0-1.876.025v-.2c1.651-.3 1.726-1.777 1.726-5.454v-8.326c0-1.3-.426-1.952-1.426-2.077v-.2c1.15.026 2.451.026 3.902.026z" transform="translate(-2368.742 -76.063)"/>
</svg>
