<svg xmlns="http://www.w3.org/2000/svg" viewBox="0 0 1235.04 355.15"><g data-name="Layer 1"><path d="M625.95 126.89c-10.98 0-20.4 3.92-28.25 11.77s-11.77 17.28-11.77 28.29 4.03 21.24 12.09 29.41 17.65 12.25 28.77 12.25q6.225 0 12.09-1.8c3.91-1.2 7.09-2.5 9.54-3.91s4.76-3.03 6.95-4.87c2.18-1.84 3.6-3.14 4.27-3.91.66-.77 1.16-1.37 1.48-1.8l-10.61-10.61-2.48 3.03c-1.65 1.97-4.46 3.99-8.42 6.07-3.96 2.07-8.24 3.11-12.81 3.11-6.33 0-11.8-2.02-16.4-6.07-4.6-4.04-7.33-8.83-8.18-14.37h61.29l.88-8.14c0-11.01-3.66-20.18-10.98-27.49-7.32-7.32-16.47-10.97-27.46-10.97Zm-23.03 32.73q2.07-8.295 8.1-13.53c4.02-3.49 8.98-5.23 14.89-5.23s11.01 1.74 15 5.23c3.99 3.48 6.46 7.99 7.42 13.53zm118.8 6.46c-3.01-1.49-6.23-2.83-9.66-4.03s-6.64-2.19-9.62-2.99-5.45-1.97-7.42-3.51-2.95-3.46-2.95-5.75 1.02-4.08 3.07-5.71q3.075-2.43 8.34-2.43c2.61 0 5.2.6 7.78 1.8s4.28 2.18 5.11 2.95 1.45 1.37 1.88 1.8l10.61-10.61-1.04-1.2c-.64-.64-1.66-1.5-3.07-2.59s-3.05-2.15-4.91-3.19-4.27-1.91-7.22-2.63-6-1.08-9.14-1.08c-7.93 0-14.54 2.32-19.83 6.94-5.29 4.63-7.94 9.95-7.94 15.96 0 4.36.98 8.1 2.95 11.21s4.46 5.4 7.46 6.86q4.515 2.19 9.66 3.99c3.43 1.2 6.64 2.21 9.62 3.03s5.45 1.99 7.42 3.51 2.95 3.42 2.95 5.71q0 4.47-3.27 7.14c-2.18 1.78-5.45 2.67-9.82 2.67-3.62 0-7.14-.89-10.58-2.67-3.43-1.78-5.66-3.23-6.7-4.35s-1.82-2.05-2.35-2.79l-10.61 10.61 1.2 1.52c.75.96 1.95 2.12 3.63 3.47 1.67 1.36 3.63 2.7 5.86 4.03 2.24 1.33 5.1 2.47 8.58 3.43 3.49.96 7.14 1.44 10.98 1.44 8.72 0 15.82-2.39 21.27-7.18s8.18-10.56 8.18-17.32c0-4.36-.98-8.09-2.95-11.17-1.97-3.09-4.46-5.37-7.46-6.86Zm60.18-39.19c-10.98 0-20.4 3.92-28.25 11.77s-11.77 17.28-11.77 28.29 4.03 21.24 12.09 29.41 17.65 12.25 28.77 12.25q6.225 0 12.09-1.8c3.91-1.2 7.09-2.5 9.54-3.91s4.76-3.03 6.95-4.87c2.18-1.84 3.6-3.14 4.27-3.91.66-.77 1.16-1.37 1.48-1.8l-10.61-10.61-2.48 3.03c-1.65 1.97-4.46 3.99-8.42 6.07-3.96 2.07-8.24 3.11-12.81 3.11-6.33 0-11.8-2.02-16.4-6.07-4.6-4.04-7.33-8.83-8.18-14.37h61.29l.88-8.14c0-11.01-3.66-20.18-10.98-27.49-7.32-7.32-16.47-10.97-27.46-10.97Zm-23.02 32.73q2.07-8.295 8.1-13.53c4.02-3.49 8.98-5.23 14.89-5.23s11.01 1.74 15 5.23c3.99 3.48 6.46 7.99 7.42 13.53zm108.02-31.65c-2.68.72-4.9 1.52-6.62 2.4-1.73.88-3.36 1.86-4.91 2.95-1.54 1.09-2.55 1.88-3.03 2.35l-1.04 1.04v-8.14h-16.36v78.45h16.36v-42.46c0-7.24 1.85-12.86 5.55-16.88q5.55-6.03 14.88-6.03c2.71 0 5.16.26 7.34.8v-15.56H875q-4.065 0-8.1 1.08m57.06 57.82-22.91-57.22h-17.16l31.93 78.45h16.28l31.93-78.45h-17.16zm81.69-58.9c-10.98 0-20.4 3.92-28.25 11.77s-11.77 17.28-11.77 28.29 4.03 21.24 12.09 29.41 17.65 12.25 28.77 12.25q6.225 0 12.09-1.8c3.91-1.2 7.09-2.5 9.54-3.91s4.76-3.03 6.95-4.87c2.18-1.84 3.6-3.14 4.27-3.91.66-.77 1.16-1.37 1.48-1.8l-10.61-10.61-2.48 3.03c-1.65 1.97-4.46 3.99-8.42 6.07-3.96 2.07-8.24 3.11-12.81 3.11-6.33 0-11.8-2.02-16.4-6.07-4.6-4.04-7.33-8.83-8.18-14.37h61.29l.88-8.14c0-11.01-3.66-20.18-10.98-27.49-7.32-7.32-16.47-10.97-27.46-10.97Zm-23.02 32.73q2.07-8.295 8.1-13.53c4.02-3.49 8.98-5.23 14.89-5.23s11.01 1.74 15 5.23c3.99 3.48 6.46 7.99 7.42 13.53zm134.88-67.04v45.01l-1.12-1.2c-.64-.64-1.73-1.5-3.27-2.59s-3.28-2.15-5.23-3.19c-1.94-1.04-4.31-1.91-7.1-2.63q-4.185-1.08-8.58-1.08c-10.38 0-19.37 3.98-26.98 11.93s-11.41 17.6-11.41 28.93 3.81 20.98 11.41 28.93c7.61 7.95 16.6 11.93 26.98 11.93 4.57 0 9.07-.97 13.49-2.91s7.3-3.53 8.66-4.75a83 83 0 0 0 3.15-2.95l4.76 9.02h11.6V92.58zm-7.18 93.69c-4.79 5.11-10.28 7.66-16.48 7.66s-11.7-2.55-16.52-7.66c-4.81-5.11-7.22-11.27-7.22-18.48s2.41-13.37 7.22-18.48c4.82-5.11 10.32-7.66 16.52-7.66s11.69 2.55 16.48 7.66 7.18 11.27 7.18 18.48-2.39 13.37-7.18 18.48m-552.52-48.68-1.12-1.2c-.64-.64-1.73-1.5-3.27-2.59s-3.28-2.15-5.23-3.19c-1.94-1.04-4.31-1.91-7.1-2.63q-4.185-1.08-8.58-1.08c-10.38 0-19.37 3.98-26.98 11.93s-11.41 17.6-11.41 28.93 3.81 20.98 11.41 28.93c7.61 7.95 16.6 11.93 26.98 11.93 4.57 0 9.07-.97 13.49-2.91s7.3-3.53 8.66-4.75a83 83 0 0 0 3.15-2.95l4.76 9.02h11.6V92.58h-16.36zm-7.18 48.68c-4.79 5.11-10.28 7.66-16.48 7.66s-11.7-2.55-16.52-7.66c-4.81-5.11-7.22-11.27-7.22-18.48s2.41-13.37 7.22-18.48c4.82-5.11 10.32-7.66 16.52-7.66s11.69 2.55 16.48 7.66 7.18 11.27 7.18 18.48-2.39 13.37-7.18 18.48M145.76 64.35H79.05c-17.84 6.76-34.36 5.19-46.42.24C14.3 66.65 0 82.23 0 101.1v92.85c0 20.26 16.49 36.75 36.75 36.75h109.01c20.26 0 36.75-16.49 36.75-36.75V101.1c0-20.26-16.49-36.75-36.75-36.75m16.83 129.6c0 9.28-7.55 16.83-16.83 16.83H36.75c-9.28 0-16.83-7.55-16.83-16.83v-63.26h142.67zm0-83.17H19.92v-9.68c0-9.28 7.55-16.83 16.83-16.83h109.01c9.28 0 16.83 7.55 16.83 16.83z" style="fill:#ff7f4d;stroke-width:0"/><path d="m276.06 128.57 17.96 53.95 18.04-53.95h17.16l-26.98 78.45h-15.56l-17.96-52.27-17.96 52.27H235.2l-26.98-78.45h17.16l18.04 53.95 17.96-53.95h14.69Zm71.04 44.93c.85 5.53 3.58 10.32 8.18 14.37 4.6 4.04 10.07 6.07 16.4 6.07 4.58 0 8.85-1.04 12.81-3.11s6.77-4.1 8.42-6.07l2.47-3.03 10.61 10.61c-.32.43-.81 1.03-1.48 1.8s-2.09 2.07-4.27 3.91a48 48 0 0 1-6.94 4.87c-2.45 1.41-5.63 2.71-9.54 3.91q-5.865 1.8-12.09 1.8c-11.12 0-20.71-4.08-28.77-12.25s-12.09-17.97-12.09-29.41 3.92-20.44 11.77-28.29 17.27-11.77 28.25-11.77 20.14 3.66 27.45 10.97c7.32 7.32 10.97 16.48 10.97 27.49l-.88 8.14h-61.29Zm8.82-27.41q-6.03 5.22-8.1 13.53h45.41c-.96-5.53-3.43-10.04-7.42-13.53s-8.99-5.23-15-5.23-10.87 1.74-14.88 5.23Zm82.65 60.93h-16.28V92.57h16.28zm38.07 0h-16.28V92.57h16.28zm-337.6 88.34-13.92 44h-5.66l-17.3-52.67h6.02l13.92 44 14.29-44h5.29l14.29 44 13.92-44h5.99l-17.3 52.67h-5.62zm44.33 27.84c.19 3.26 1.54 6.07 4.02 8.45 2.49 2.38 5.41 3.56 8.76 3.56 2.25 0 4.35-.5 6.28-1.51 1.94-1 3.31-2.01 4.11-3.01l1.29-1.47 3.38 3.38c-.15.19-.36.47-.64.83s-.89.95-1.84 1.8c-.94.84-1.96 1.59-3.05 2.24s-2.5 1.25-4.22 1.8c-1.73.55-3.5.83-5.31.83-4.92 0-9.16-1.83-12.71-5.49s-5.33-8.1-5.33-13.31 1.76-9.65 5.27-13.31c3.52-3.66 7.65-5.49 12.4-5.49s9.04 1.71 12.34 5.12c3.31 3.42 4.96 7.73 4.96 12.95l-.37 2.72-29.35-.07Zm4.15-12.45c-2.35 2.23-3.74 4.87-4.15 7.93h24.46c-.39-3.26-1.71-5.95-3.95-8.08s-4.94-3.2-8.1-3.2-5.91 1.11-8.26 3.34Zm40.59 28.61h-5.25v-52.67h5.25zm18.03 0h-5.25v-52.67h5.25zm17.67-30.85c.1-.15.25-.36.44-.62s.66-.76 1.4-1.47 1.51-1.33 2.33-1.85c.82-.53 1.91-1 3.27-1.43s2.76-.64 4.21-.64c4.36 0 7.9 1.41 10.61 4.22 2.72 2.82 4.08 6.55 4.08 11.2v21.45h-5.29v-21.45c0-3.16-.91-5.7-2.74-7.62s-4.17-2.88-7.03-2.88c-3.21 0-5.89 1.13-8.04 3.38s-3.23 5.13-3.23 8.63v19.94h-5.25v-36.11h5.25v5.25Zm40.95 14.69c.19 3.26 1.54 6.07 4.02 8.45 2.49 2.38 5.41 3.56 8.76 3.56 2.25 0 4.35-.5 6.28-1.51 1.94-1 3.31-2.01 4.11-3.01l1.29-1.47 3.38 3.38c-.15.19-.36.47-.64.83s-.89.95-1.84 1.8c-.94.84-1.96 1.59-3.05 2.24s-2.5 1.25-4.22 1.8c-1.73.55-3.5.83-5.31.83-4.92 0-9.16-1.83-12.71-5.49s-5.33-8.1-5.33-13.31 1.76-9.65 5.27-13.31c3.52-3.66 7.65-5.49 12.4-5.49s9.04 1.71 12.34 5.12c3.31 3.42 4.96 7.73 4.96 12.95l-.37 2.72-29.35-.07Zm4.15-12.45c-2.35 2.23-3.74 4.87-4.15 7.93h24.46c-.39-3.26-1.71-5.95-3.95-8.08s-4.94-3.2-8.1-3.2-5.91 1.11-8.26 3.34Zm53 .4c-.19-.29-.48-.64-.86-1.05-.38-.4-1.26-.95-2.63-1.65a9.56 9.56 0 0 0-4.41-1.05c-2.01 0-3.64.53-4.89 1.58s-1.87 2.28-1.87 3.67.67 2.61 2.02 3.49 2.98 1.59 4.89 2.11q2.865.795 5.73 1.8c1.91.67 3.54 1.77 4.89 3.31 1.35 1.53 2.02 3.48 2.02 5.86 0 3.11-1.19 5.7-3.56 7.77-2.38 2.07-5.57 3.1-9.59 3.1-1.72 0-3.32-.22-4.83-.66s-2.75-.97-3.73-1.58a20.6 20.6 0 0 1-2.55-1.85c-.72-.62-1.26-1.16-1.6-1.6l-.48-.7 3.78-3.75c.1.15.23.34.4.57s.56.65 1.16 1.25 1.24 1.14 1.93 1.62 1.57.9 2.64 1.27c1.08.37 2.17.55 3.27.55 2.55 0 4.5-.56 5.86-1.69s2.04-2.56 2.04-4.3c0-1.49-.68-2.71-2.04-3.65s-2.99-1.69-4.89-2.24-3.8-1.16-5.71-1.84c-1.91-.67-3.54-1.74-4.9-3.2q-2.04-2.19-2.04-5.64c0-2.72 1.15-5.09 3.43-7.13 2.29-2.03 5.16-3.05 8.61-3.05 1.4 0 2.76.17 4.1.5 1.33.33 2.43.73 3.29 1.21s1.62.97 2.3 1.47 1.16.9 1.45 1.19l.55.55-3.78 3.75Zm32.33 0c-.19-.29-.48-.64-.86-1.05-.38-.4-1.26-.95-2.63-1.65a9.56 9.56 0 0 0-4.41-1.05c-2.01 0-3.64.53-4.89 1.58s-1.87 2.28-1.87 3.67.67 2.61 2.02 3.49 2.98 1.59 4.89 2.11q2.865.795 5.73 1.8c1.91.67 3.54 1.77 4.89 3.31 1.35 1.53 2.02 3.48 2.02 5.86 0 3.11-1.19 5.7-3.56 7.77-2.38 2.07-5.57 3.1-9.59 3.1-1.72 0-3.32-.22-4.83-.66s-2.75-.97-3.73-1.58a20.6 20.6 0 0 1-2.55-1.85c-.72-.62-1.26-1.16-1.6-1.6l-.48-.7 3.78-3.75c.1.15.23.34.4.57s.56.65 1.16 1.25 1.24 1.14 1.93 1.62 1.57.9 2.64 1.27c1.08.37 2.17.55 3.27.55 2.55 0 4.5-.56 5.86-1.69s2.04-2.56 2.04-4.3c0-1.49-.68-2.71-2.04-3.65s-2.99-1.69-4.89-2.24-3.8-1.16-5.71-1.84c-1.91-.67-3.54-1.74-4.9-3.2s-2.04-3.34-2.04-5.64c0-2.72 1.15-5.09 3.43-7.13 2.29-2.03 5.16-3.05 8.61-3.05 1.4 0 2.76.17 4.1.5 1.33.33 2.43.73 3.29 1.21s1.62.97 2.3 1.47c.67.5 1.16.9 1.45 1.19l.55.55-3.78 3.75Zm47.38-3.38h-2.28c-3.11 0-5.77 1.08-7.97 3.23-2.2 2.16-3.31 4.96-3.31 8.41v19.94h-5.25v-36.11h5.25v4.89c.1-.15.25-.35.44-.61s.66-.71 1.4-1.36 1.52-1.22 2.37-1.73c.84-.5 1.97-.95 3.38-1.36 1.41-.4 2.89-.61 4.46-.61h1.51v5.29Zm9.73 15.43c.19 3.26 1.54 6.07 4.02 8.45 2.49 2.38 5.41 3.56 8.76 3.56 2.25 0 4.35-.5 6.28-1.51 1.94-1 3.31-2.01 4.11-3.01l1.29-1.47 3.38 3.38c-.15.19-.36.47-.64.83s-.89.95-1.84 1.8c-.94.84-1.96 1.59-3.05 2.24s-2.5 1.25-4.22 1.8c-1.73.55-3.5.83-5.31.83-4.92 0-9.16-1.83-12.71-5.49s-5.33-8.1-5.33-13.31 1.76-9.65 5.27-13.31c3.52-3.66 7.65-5.49 12.4-5.49s9.04 1.71 12.34 5.12c3.31 3.42 4.96 7.73 4.96 12.95l-.37 2.72-29.35-.07Zm4.15-12.45c-2.35 2.23-3.74 4.87-4.15 7.93h24.46c-.39-3.26-1.71-5.95-3.95-8.08s-4.94-3.2-8.1-3.2-5.91 1.11-8.26 3.34Zm58.66-7.5 9 27.84 9.4-27.84h5.66l-12.41 36.11h-4.89l-9.04-27.47-9 27.47h-4.92l-12.41-36.11h5.66l9.4 27.84 9.04-27.84h4.52Zm53.04 13.15c0-2.67-.84-4.84-2.53-6.5s-3.86-2.5-6.5-2.5c-1.91 0-3.7.43-5.38 1.3s-2.89 1.76-3.65 2.66l-1.14 1.29-3.38-3.38c.15-.19.35-.45.61-.75s.82-.84 1.69-1.62 1.78-1.46 2.74-2.08 2.21-1.16 3.76-1.63c1.55-.48 3.14-.72 4.76-.72 4.11 0 7.52 1.33 10.23 4s4.06 5.98 4.06 9.92v22.96h-5.25v-4.89c-.1.15-.25.35-.46.61s-.67.71-1.4 1.36c-.72.65-1.5 1.22-2.33 1.73-.83.5-1.93.95-3.29 1.34s-2.76.59-4.21.59c-3.6 0-6.63-1.07-9.09-3.2s-3.69-4.57-3.69-7.31c0-3.01.91-5.44 2.72-7.29s4.42-3.06 7.82-3.62l13.92-2.28Zm-3.29 15.47c2.19-2.23 3.29-5.12 3.29-8.67v-2.28l-12.41 2.28c-4.51.86-6.77 2.99-6.8 6.39 0 1.62.67 2.96 2 4.02 1.33 1.07 3.18 1.6 5.53 1.6 3.4 0 6.2-1.11 8.39-3.34m39.36-24.1h-2.28c-3.11 0-5.77 1.08-7.97 3.23-2.2 2.16-3.31 4.96-3.31 8.41v19.94h-5.25v-36.11h5.25v4.89c.1-.15.25-.35.44-.61s.66-.71 1.4-1.36 1.52-1.22 2.37-1.73c.84-.5 1.97-.95 3.38-1.36 1.41-.4 2.89-.61 4.46-.61h1.51v5.29Zm34.56-21.08h5.25v52.67h-5.25v-5.66c-.1.15-.27.37-.51.68-.25.3-.77.83-1.58 1.56s-1.68 1.39-2.61 1.97-2.12 1.08-3.58 1.52q-2.19.66-4.5.66c-4.6 0-8.64-1.84-12.1-5.53-3.46-3.68-5.2-8.11-5.2-13.26s1.73-9.58 5.2-13.28c3.46-3.7 7.5-5.55 12.1-5.55 1.54 0 3.03.23 4.46.68s2.64.98 3.62 1.58 1.83 1.22 2.55 1.85c.72.64 1.27 1.18 1.63 1.62l.51.7v-22.22Zm-3.95 24.88c-2.63-2.78-5.58-4.17-8.83-4.17s-5.9 1.35-8.36 4.06-3.69 5.99-3.69 9.84 1.23 7.14 3.69 9.84c2.46 2.71 5.25 4.06 8.36 4.06s6.2-1.39 8.83-4.17 3.95-6.02 3.95-9.73-1.31-6.95-3.95-9.73m39.65-.42c-.19-.29-.48-.64-.86-1.05s-1.26-.95-2.63-1.65-2.84-1.05-4.41-1.05c-2.01 0-3.64.53-4.89 1.58s-1.87 2.28-1.87 3.67.67 2.61 2.02 3.49 2.98 1.59 4.89 2.11q2.865.795 5.73 1.8c1.91.67 3.54 1.77 4.89 3.31 1.35 1.53 2.02 3.48 2.02 5.86 0 3.11-1.19 5.7-3.56 7.77-2.38 2.07-5.57 3.1-9.59 3.1-1.72 0-3.32-.22-4.83-.66s-2.75-.97-3.73-1.58a20.6 20.6 0 0 1-2.55-1.85c-.72-.62-1.26-1.16-1.6-1.6l-.48-.7 3.78-3.75c.1.15.23.34.4.57s.56.65 1.16 1.25 1.24 1.14 1.93 1.62 1.57.9 2.64 1.27c1.08.37 2.17.55 3.27.55 2.55 0 4.5-.56 5.86-1.69s2.04-2.56 2.04-4.3c0-1.49-.68-2.71-2.04-3.65s-2.99-1.69-4.89-2.24-3.8-1.16-5.71-1.84c-1.91-.67-3.54-1.74-4.9-3.2s-2.04-3.34-2.04-5.64c0-2.72 1.15-5.09 3.43-7.13 2.29-2.03 5.16-3.05 8.61-3.05 1.4 0 2.76.17 4.1.5 1.33.33 2.43.73 3.29 1.21s1.62.97 2.3 1.47c.67.5 1.16.9 1.45 1.19l.55.55-3.78 3.75Zm76.69 6.76c0-3.35-.83-5.94-2.48-7.77s-3.83-2.74-6.52-2.74-5.09 1.09-6.98 3.27c-1.88 2.18-2.83 5.09-2.83 8.74v19.94h-5.25V317.9c0-3.31-.83-5.88-2.48-7.73s-3.84-2.77-6.56-2.77-5.09 1.09-6.96 3.27-2.81 5.09-2.81 8.74v19.94h-5.25v-36.11h5.25v4.52c.1-.15.22-.34.37-.57s.52-.65 1.12-1.25 1.27-1.14 2-1.62 1.69-.91 2.86-1.29 2.44-.57 3.78-.57c1.62 0 3.13.23 4.54.68s2.52.98 3.34 1.58 1.53 1.22 2.13 1.85 1.04 1.18 1.3 1.62l.37.7c.1-.15.23-.37.4-.68.17-.3.62-.83 1.36-1.56.73-.73 1.52-1.39 2.37-1.97.84-.58 2.01-1.09 3.49-1.54s3.08-.68 4.79-.68q6.165 0 10.05 4.08c2.58 2.72 3.88 6.5 3.88 11.35v21.45h-5.29v-21.45Zm39.12-1.51c0-2.67-.84-4.84-2.53-6.5s-3.86-2.5-6.5-2.5c-1.91 0-3.7.43-5.38 1.3s-2.89 1.76-3.65 2.66l-1.14 1.29-3.38-3.38c.15-.19.35-.45.61-.75s.82-.84 1.69-1.62c.87-.77 1.78-1.46 2.74-2.08.95-.61 2.21-1.16 3.76-1.63 1.55-.48 3.14-.72 4.76-.72 4.11 0 7.52 1.33 10.23 4s4.06 5.98 4.06 9.92v22.96h-5.25v-4.89c-.1.15-.25.35-.46.61s-.67.71-1.4 1.36c-.72.65-1.5 1.22-2.33 1.73-.83.5-1.93.95-3.29 1.34s-2.76.59-4.21.59c-3.6 0-6.63-1.07-9.09-3.2s-3.69-4.57-3.69-7.31c0-3.01.91-5.44 2.72-7.29s4.42-3.06 7.82-3.62l13.92-2.28Zm-3.29 15.47c2.19-2.23 3.29-5.12 3.29-8.67v-2.28l-12.41 2.28c-4.51.86-6.77 2.99-6.8 6.39 0 1.62.67 2.96 2 4.02 1.33 1.07 3.18 1.6 5.53 1.6 3.4 0 6.2-1.11 8.39-3.34m47.99-45.18h5.25v52.67h-5.25v-5.66c-.1.15-.27.37-.51.68s-.77.83-1.58 1.56-1.68 1.39-2.61 1.97-2.12 1.08-3.58 1.52q-2.19.66-4.5.66c-4.6 0-8.64-1.84-12.1-5.53-3.46-3.68-5.2-8.11-5.2-13.26s1.73-9.58 5.2-13.28c3.46-3.7 7.5-5.55 12.1-5.55 1.54 0 3.03.23 4.46.68s2.64.98 3.62 1.58 1.83 1.22 2.55 1.85c.72.64 1.27 1.18 1.63 1.62l.51.7v-22.22Zm-3.95 24.88c-2.63-2.78-5.58-4.17-8.83-4.17s-5.9 1.35-8.36 4.06q-3.69 4.065-3.69 9.84c0 5.775 1.23 7.14 3.69 9.84 2.46 2.71 5.25 4.06 8.36 4.06s6.2-1.39 8.83-4.17 3.95-6.02 3.95-9.73-1.31-6.95-3.95-9.73m24.23 11.63c.19 3.26 1.54 6.07 4.02 8.45 2.49 2.38 5.41 3.56 8.76 3.56 2.25 0 4.35-.5 6.28-1.51 1.94-1 3.31-2.01 4.11-3.01l1.29-1.47 3.38 3.38c-.15.19-.36.47-.64.83s-.89.95-1.84 1.8c-.94.84-1.96 1.59-3.05 2.24s-2.5 1.25-4.22 1.8c-1.73.55-3.5.83-5.31.83-4.92 0-9.16-1.83-12.71-5.49s-5.33-8.1-5.33-13.31 1.76-9.65 5.27-13.31c3.52-3.66 7.65-5.49 12.4-5.49s9.04 1.71 12.34 5.12c3.31 3.42 4.96 7.73 4.96 12.95l-.37 2.72-29.35-.07Zm4.15-12.45c-2.35 2.23-3.74 4.87-4.15 7.93h24.46c-.39-3.26-1.71-5.95-3.95-8.08s-4.94-3.2-8.1-3.2-5.91 1.11-8.26 3.34Zm51.86 12.45c.19 3.26 1.54 6.07 4.02 8.45 2.49 2.38 5.41 3.56 8.76 3.56 2.25 0 4.35-.5 6.28-1.51 1.94-1 3.31-2.01 4.11-3.01l1.29-1.47 3.38 3.38c-.15.19-.36.47-.64.83s-.89.95-1.84 1.8c-.94.84-1.96 1.59-3.05 2.24s-2.5 1.25-4.22 1.8c-1.73.55-3.5.83-5.31.83-4.92 0-9.16-1.83-12.71-5.49s-5.33-8.1-5.33-13.31 1.76-9.65 5.27-13.31c3.52-3.66 7.65-5.49 12.4-5.49s9.04 1.71 12.34 5.12c3.31 3.42 4.96 7.73 4.96 12.95l-.37 2.72-29.35-.07Zm4.15-12.45c-2.35 2.23-3.74 4.87-4.15 7.93h24.46c-.39-3.26-1.71-5.95-3.95-8.08s-4.94-3.2-8.1-3.2-5.91 1.11-8.26 3.34Zm56.79 5.65c0-2.67-.84-4.84-2.53-6.5s-3.86-2.5-6.5-2.5c-1.91 0-3.7.43-5.38 1.3s-2.89 1.76-3.65 2.66l-1.14 1.29-3.38-3.38c.15-.19.35-.45.61-.75s.82-.84 1.69-1.62c.87-.77 1.78-1.46 2.74-2.08.95-.61 2.21-1.16 3.76-1.63 1.55-.48 3.14-.72 4.76-.72 4.11 0 7.52 1.33 10.23 4s4.06 5.98 4.06 9.92v22.96h-5.25v-4.89c-.1.15-.25.35-.46.61s-.67.71-1.4 1.36-1.5 1.22-2.33 1.73c-.83.5-1.93.95-3.29 1.34s-2.76.59-4.21.59c-3.6 0-6.63-1.07-9.09-3.2s-3.69-4.57-3.69-7.31c0-3.01.91-5.44 2.72-7.29s4.42-3.06 7.82-3.62l13.92-2.28Zm-3.29 15.47c2.19-2.23 3.29-5.12 3.29-8.67v-2.28l-12.41 2.28c-4.51.86-6.77 2.99-6.8 6.39 0 1.62.67 2.96 2 4.02 1.33 1.07 3.18 1.6 5.53 1.6 3.4 0 6.2-1.11 8.39-3.34m38.58-20.72c-.19-.29-.48-.64-.86-1.05s-1.26-.95-2.63-1.65-2.84-1.05-4.41-1.05c-2.01 0-3.64.53-4.89 1.58s-1.87 2.28-1.87 3.67.67 2.61 2.02 3.49 2.98 1.59 4.89 2.11q2.865.795 5.73 1.8c1.91.67 3.54 1.77 4.89 3.31 1.35 1.53 2.02 3.48 2.02 5.86 0 3.11-1.19 5.7-3.56 7.77-2.38 2.07-5.57 3.1-9.59 3.1-1.72 0-3.32-.22-4.83-.66s-2.75-.97-3.73-1.58a20.6 20.6 0 0 1-2.55-1.85c-.72-.62-1.26-1.16-1.6-1.6l-.48-.7 3.78-3.75c.1.15.23.34.4.57s.56.65 1.16 1.25 1.24 1.14 1.93 1.62 1.57.9 2.64 1.27c1.08.37 2.17.55 3.27.55 2.55 0 4.5-.56 5.86-1.69s2.04-2.56 2.04-4.3c0-1.49-.68-2.71-2.04-3.65s-2.99-1.69-4.89-2.24-3.8-1.16-5.71-1.84c-1.91-.67-3.54-1.74-4.9-3.2q-2.04-2.19-2.04-5.64c0-2.72 1.15-5.09 3.43-7.13 2.29-2.03 5.16-3.05 8.61-3.05 1.4 0 2.76.17 4.1.5 1.33.33 2.43.73 3.29 1.21s1.62.97 2.3 1.47c.67.5 1.16.9 1.45 1.19l.55.55-3.78 3.75Zm24.06 28.21-14.69-36.11h5.66l11.68 29.35 11.64-29.35h5.66L1034 344.61c-1.49 3.82-3.1 6.53-4.81 8.14-1.72 1.61-3.87 2.41-6.46 2.41-.81 0-1.59-.06-2.33-.18s-1.3-.26-1.67-.4l-.51-.15v-4.92c1.25.49 2.5.75 3.75.77 3.18 0 5.45-1.88 6.8-5.66l1.87-5.25Zm22.06-5.71c.67-.7 1.59-1.05 2.74-1.05s2.06.35 2.74 1.05c.67.7 1.01 1.6 1.01 2.7s-.34 2-1.01 2.7-1.59 1.05-2.74 1.05-2.06-.35-2.74-1.05c-.67-.7-1.01-1.6-1.01-2.7s.34-2 1.01-2.7M144.1 46.43c-7.04 1.78-18.59.76-30.06-7.02-3.64 2.82-7.17 6.01-10.82 9.31-1.23 1.11-2.48 2.24-3.75 3.37 6.77 6.29 14.34 10.06 21.33 12.25h24.96c2.09 0 4.14.19 6.14.52 13.01-4.42 25.17-16.19 24.9-31.78-.2-12.02-9.08-27.09-28.07-31.79-17.48-4.32-34 3.02-42.29 7.78-5.62 3.23-10.55 7.09-15.19 11.1-1.86-1.62-3.55-3.01-5.18-4.29C74.42 6.77 61.63 1.37 49.08.29 35.68-.87 23.26 3.36 15 11.89c-5.74 5.92-9.03 13.33-9.27 20.85-.25 7.74 2.82 15.48 8.64 21.8 9.69 10.49 25.14 14.72 41.33 11.31 11.82-2.49 22.82-8.27 34.6-18.2 2.74-2.3 5.38-4.69 7.93-7.01 6.02-5.45 11.71-10.6 18.11-14.27 9.71-5.57 19.76-7.66 27.6-5.72 6.28 1.55 12.62 5.67 12.53 12.9-.08 6.09-6.01 11.28-12.38 12.89Zm-92.5-.07c-9.26 1.95-17.77.01-22.59-5.33-4.11-4.55-3.3-11.48.3-15.28 3.51-3.69 9.21-5.72 15.51-5.72.84 0 1.69.04 2.54.11 10.97.95 20.42 6.75 26.41 11.44.77.6 1.56 1.24 2.38 1.93-8.65 7.06-16.48 11.16-24.56 12.85Z" style="fill:#40003a;stroke-width:0"/></g><text transform="translate(1144.4 208.11)" style="font-family:Arial-BoldMT,Arial;font-size:40px;font-weight:700;fill:#ff7f4d" data-name="Layer 2"><tspan x="0" y="0">®</tspan></text></svg>