<svg width="60" height="60" viewBox="0 0 60 60" xmlns="http://www.w3.org/2000/svg" class="c-partners__card__image">
                                                <g clip-path="url(#clip0_213_241)">
                                                    <path d="M30 15.6143L37.1244 9.67742H46.4516V0H23.2258V9.67742H30V15.6143ZM25.1613 7.74194V1.93548H44.5162V7.74194H36.4241L31.9355 11.4825V7.74194H25.1613Z"></path>
                                                    <path d="M27.0967 3.87097H29.0322V5.80646H27.0967V3.87097Z"></path>
                                                    <path d="M30.9678 3.87097H38.7097V5.80646H30.9678V3.87097Z"></path>
                                                    <path d="M40.6453 3.87097H42.5807V5.80646H40.6453V3.87097Z"></path>
                                                    <path d="M49.2627 58.0645L48.4802 50.2304C51.7114 49.7196 54.1936 46.9218 54.1936 43.5484V30.9677H50.3226V29.6305C50.3226 28.3149 49.5996 27.1336 48.4372 26.5278C49.593 25.4661 50.3226 23.9478 50.3226 22.258V20.3226C50.3226 17.1202 47.7185 14.5161 44.5161 14.5161C41.3138 14.5161 38.7097 17.1202 38.7097 20.3226V22.258C38.7097 24.7634 40.3073 26.8964 42.5353 27.7092L37.3412 32.9032H31.9142C31.806 31.29 30.6979 29.8837 29.1282 29.4348L25.1613 28.3027V26.5741C26.3459 25.5105 27.0968 23.9729 27.0968 22.258V20.3226C27.0968 17.1202 24.4927 14.5161 21.2903 14.5161C18.088 14.5161 15.4839 17.1202 15.4839 20.3226V22.258C15.4839 23.9719 16.2347 25.5095 17.4194 26.5741V28.3036L13.4525 29.4358C11.7996 29.9069 10.6452 31.4379 10.6452 33.1579V36.7742H6.77419V42.5806H8.70968V58.0645H0V60H60V58.0645H49.2627ZM40.6452 42.5806V38.1426L47.5025 31.2853C47.9982 30.7896 48.2931 30.1238 48.3592 29.4292C48.3677 29.4967 48.3871 29.5605 48.3871 29.6305V41.6129C48.3871 43.2134 47.0843 44.5161 45.4839 44.5161H37.7419V42.5806H40.6452ZM37.7419 50.3226H42.6728L43.4468 58.0645H37.7419V50.3226ZM44.6177 50.3226H46.5438L47.3178 58.0645H45.3917L44.6177 50.3226ZM50.3226 41.6129V32.9032H52.2581V43.5484C52.2581 46.2163 50.0873 48.3871 47.4194 48.3871H37.7419V46.4516H45.4839C48.1518 46.4516 50.3226 44.2808 50.3226 41.6129ZM40.6452 22.258V20.3226C40.6452 18.1877 42.3812 16.4516 44.5161 16.4516C46.651 16.4516 48.3871 18.1877 48.3871 20.3226V22.258C48.3871 24.3929 46.651 26.129 44.5161 26.129C42.3812 26.129 40.6452 24.3929 40.6452 22.258ZM38.1426 34.8387L44.5993 28.382C44.8015 28.1798 45.0813 28.0645 45.3667 28.0645C45.9649 28.0645 46.4516 28.5512 46.4516 29.1494C46.4516 29.4348 46.3363 29.7146 46.1341 29.9168L39.2767 36.7742H29.0323C28.4983 36.7742 28.0645 36.3404 28.0645 35.8064C28.0645 35.2725 28.4983 34.8387 29.0323 34.8387H38.1426ZM17.4194 20.3226C17.4194 18.1877 19.1554 16.4516 21.2903 16.4516C23.4252 16.4516 25.1613 18.1877 25.1613 20.3226V22.258C25.1613 24.3929 23.4252 26.129 21.2903 26.129C19.1554 26.129 17.4194 24.3929 17.4194 22.258V20.3226ZM21.2903 28.0645C21.9698 28.0645 22.6191 27.9407 23.2258 27.7257V28.7653C22.9858 29.1357 22.319 30 21.2903 30C20.2616 30 19.5949 29.1357 19.3548 28.7653V27.7257C19.9616 27.9407 20.6108 28.0645 21.2903 28.0645ZM12.5806 33.1579C12.5806 32.2974 13.1586 31.5329 13.9841 31.2966L17.9708 30.1578C18.5322 30.8893 19.6247 31.9355 21.2903 31.9355C22.956 31.9355 24.0485 30.8893 24.6099 30.1569L28.5966 31.2957C29.338 31.5078 29.8549 32.1524 29.9584 32.9023H29.0323C27.4318 32.9023 26.129 34.205 26.129 35.8055C26.129 36.1462 26.1985 36.4694 26.3072 36.7732H12.5806V33.1579ZM8.70968 38.7097H38.7097V40.6451H8.70968V38.7097ZM10.6452 46.4516H13.5484V44.5161H10.6452V42.5806H35.8065V44.5161H15.4839V46.4516H35.8065V58.0645H33.5015L31.566 54.1935H14.8856L12.9502 58.0645H10.6452V46.4516ZM31.3373 58.0645H15.1144L16.0821 56.129H30.3695L31.3373 58.0645Z"></path>
                                                </g>
                                                <defs>
                                                    <clipPath id="clip0_213_241">
                                                        <rect width="60" height="60"></rect>
                                                    </clipPath>
                                                </defs>
                                            </svg>