<svg width="60" height="60" viewBox="0 0 60 60" xmlns="http://www.w3.org/2000/svg" class="c-partners__card__image">
                                                <path d="M10.9645 6.47705C8.77844 6.47705 7 8.2549 7 10.44C7 12.6251 8.77844 14.4029 10.9645 14.4029C13.1522 14.4029 14.9322 12.6251 14.9322 10.44C14.9322 8.2549 13.1522 6.47705 10.9645 6.47705ZM10.9645 12.0395C10.0817 12.0395 9.36355 11.3219 9.36355 10.44C9.36355 9.55803 10.0817 8.84061 10.9645 8.84061C11.849 8.84061 12.5687 9.55814 12.5687 10.4401C12.5687 11.3221 11.849 12.0395 10.9645 12.0395Z"></path>
                                                <path d="M45.6285 6.47705H35.1485C32.9625 6.47705 31.1841 8.2549 31.1841 10.44C31.1841 12.6251 32.9625 14.4029 35.1485 14.4029H45.6285C47.8145 14.4029 49.5929 12.6251 49.5929 10.44C49.5929 8.2549 47.8145 6.47705 45.6285 6.47705ZM45.6285 12.0395H35.1485C34.2658 12.0395 33.5476 11.3219 33.5476 10.44C33.5476 9.55803 34.2659 8.84049 35.1485 8.84049H45.6285C46.5113 8.84049 47.2294 9.55803 47.2294 10.44C47.2294 11.3219 46.5113 12.0395 45.6285 12.0395Z"></path>
                                                <path d="M21.2384 6.47705C19.0524 6.47705 17.2739 8.2549 17.2739 10.44C17.2739 12.6251 19.0524 14.4029 21.2384 14.4029C23.4262 14.4029 25.2061 12.6251 25.2061 10.44C25.2061 8.2549 23.4262 6.47705 21.2384 6.47705ZM21.2384 12.0395C20.3556 12.0395 19.6375 11.3219 19.6375 10.44C19.6375 9.55803 20.3557 8.84049 21.2384 8.84049C22.1229 8.84049 22.8427 9.55803 22.8427 10.44C22.8427 11.3219 22.1229 12.0395 21.2384 12.0395Z"></path>
                                                <path d="M19.3114 26.0676C18.6768 25.9157 18.039 26.3074 17.8873 26.9423L15.5429 36.753C15.3912 37.3878 15.7828 38.0255 16.4176 38.1771C16.5099 38.1991 16.6024 38.2098 16.6933 38.2098C17.2276 38.2098 17.712 37.8449 17.8416 37.3024L20.1861 27.4917C20.3378 26.8569 19.9462 26.2194 19.3114 26.0676Z"></path>
                                                <path d="M23.6502 37.0241C23.8755 37.2247 24.1562 37.3234 24.4359 37.3234C24.7613 37.3234 25.0853 37.1898 25.3189 36.9277L28.6327 33.2077C29.1795 32.599 29.1795 31.6458 28.6361 31.041L25.3187 27.3171C24.8844 26.8296 24.1374 26.7867 23.6502 27.2207C23.1627 27.6549 23.1196 28.4019 23.5538 28.8892L26.4339 32.1223L23.5538 35.3555C23.1197 35.843 23.1628 36.5901 23.6502 37.0241Z"></path>
                                                <path d="M12.0791 27.2208C11.5916 26.7866 10.8448 26.8301 10.4106 27.3172L7.09713 31.0369C6.54963 31.6457 6.54963 32.5993 7.09338 33.2039L10.4107 36.9278C10.6443 37.19 10.9682 37.3235 11.2937 37.3235C11.5733 37.3235 11.8542 37.2248 12.0794 37.0242C12.5669 36.59 12.61 35.843 12.1758 35.3557L9.29568 32.1226L12.1758 28.8894C12.6097 28.4019 12.5666 27.6548 12.0791 27.2208Z"></path>
                                                <path d="M57.3505 39.7889H56.9118C56.682 39.0445 56.3842 38.3259 56.0209 37.6392L56.334 37.325C56.8341 36.828 57.11 36.1644 57.1111 35.4563C57.1121 34.7467 56.8371 34.0803 56.3365 33.5798L55.7264 32.9701V7.79822C55.7264 4.27334 53.239 1.40576 50.1813 1.40576H5.54508C2.48742 1.40576 0 4.27334 0 7.79822V40.8279C0 44.3528 2.48742 47.2203 5.54508 47.2203H12.4786C13.1312 47.2203 13.6603 46.6912 13.6603 46.0386C13.6603 45.386 13.1312 44.8569 12.4786 44.8569H5.54508C3.82055 44.8569 2.36355 43.0118 2.36355 40.828V19.3881H53.3627V31.3301C53.2281 31.3093 53.0917 31.2957 52.9528 31.2957C52.9514 31.2957 52.95 31.2957 52.9487 31.2957C52.2407 31.2969 51.577 31.5725 51.0839 32.0683L50.7645 32.3864C50.0633 32.016 49.3331 31.7147 48.5802 31.4846V31.0637C48.5802 29.6031 47.3917 28.4149 45.9307 28.4149H43.7921C42.333 28.4149 41.1461 29.6031 41.1461 31.0637V31.5135C40.4073 31.7456 39.694 32.0443 39.0122 32.4071L38.7061 32.102C38.209 31.6024 37.5452 31.3265 36.8372 31.3255C36.8359 31.3255 36.8346 31.3255 36.8332 31.3255C36.125 31.3255 35.4601 31.6003 34.9605 32.0995L33.4496 33.6097C32.949 34.1101 32.674 34.7765 32.675 35.4861C32.6761 36.1942 32.952 36.8578 33.4482 37.3509L33.7746 37.6782C33.4203 38.3544 33.1294 39.0597 32.9043 39.7887H32.4554C30.9962 39.7887 29.8092 40.9753 29.8092 42.434V44.5747C29.8092 44.6699 29.8145 44.7638 29.8243 44.8564H22.9484C22.2957 44.8564 21.7666 45.3855 21.7666 46.0381C21.7666 46.6908 22.2957 47.2199 22.9484 47.2199H32.4553H32.9087C33.1372 47.9557 33.4327 48.6667 33.793 49.3473L33.4737 49.6652C32.4456 50.6988 32.4465 52.3768 33.4761 53.4056L34.9879 54.9167C35.485 55.4163 36.1487 55.6922 36.8568 55.6932H36.8606C37.5689 55.6932 38.2338 55.4184 38.7334 54.9191L39.0499 54.6028C39.7366 54.9648 40.4507 55.2606 41.1857 55.4878V55.9452C41.1857 57.4058 42.3727 58.594 43.8319 58.594H45.9737C47.4328 58.594 48.6198 57.4058 48.6198 55.9452V55.4906C49.3617 55.2617 50.0787 54.9648 50.7646 54.6027L51.0797 54.9166C51.5767 55.4163 52.2403 55.6921 52.9484 55.6932H52.9525C53.6606 55.6932 54.3255 55.4184 54.8261 54.9183L56.3337 53.4081C56.8337 52.9111 57.1097 52.2474 57.1107 51.5394C57.1118 50.8297 56.8368 50.1634 56.336 49.6629L56.0207 49.3476C56.3803 48.6664 56.6755 47.955 56.9037 47.22H57.3503C58.8113 47.22 59.9998 46.0333 59.9998 44.5747V42.434C60 40.9755 58.8115 39.7889 57.3505 39.7889ZM2.36355 17.0245V7.79822C2.36355 5.61443 3.82055 3.76932 5.54508 3.76932H50.1813C51.9059 3.76932 53.3629 5.61443 53.3629 7.79822V17.0246L2.36355 17.0245ZM57.6364 44.5749C57.6364 44.7251 57.5029 44.8567 57.3504 44.8567H55.999C55.448 44.8567 54.9701 45.2374 54.847 45.7745C54.5918 46.8883 54.1534 47.9447 53.5439 48.9144C53.2504 49.3814 53.3189 49.9894 53.7091 50.3792L54.6654 51.3349C54.7369 51.4064 54.7474 51.4917 54.7474 51.5362C54.7473 51.5894 54.7335 51.6667 54.6645 51.7351L53.1546 53.2476C53.083 53.3191 52.9976 53.3299 52.9526 53.3299C52.9525 53.3299 52.9523 53.3299 52.9523 53.3299C52.8987 53.3299 52.8212 53.316 52.752 53.2462L51.7922 52.2905C51.4018 51.9017 50.795 51.8344 50.329 52.1273C49.3579 52.7382 48.2971 53.1773 47.1759 53.4324C46.6382 53.555 46.2565 54.0331 46.2565 54.5849V55.9455C46.2565 56.0974 46.1244 56.2308 45.9739 56.2308H43.8321C43.6815 56.2308 43.5495 56.0975 43.5495 55.9455V54.5815C43.5495 54.0293 43.167 53.5506 42.6284 53.4288C41.5215 53.1785 40.4626 52.7401 39.4813 52.126C39.2879 52.005 39.0707 51.9459 38.8547 51.9459C38.5494 51.9459 38.2468 52.0639 38.0189 52.292L37.0628 53.2476C36.9912 53.3191 36.9057 53.3299 36.8607 53.3299C36.8606 53.3299 36.8605 53.3299 36.8604 53.3299C36.8068 53.3299 36.7293 53.316 36.6614 53.2478L35.1472 51.7343C35.0412 51.6283 35.0423 51.4406 35.1458 51.3365L36.1055 50.3808C36.4976 49.9903 36.5661 49.3802 36.2707 48.9124C35.6603 47.9458 35.2213 46.8902 34.9658 45.7748C34.8428 45.2378 34.3649 44.8569 33.8138 44.8569H32.4555C32.3024 44.8569 32.1729 44.7279 32.1729 44.5752V42.4345C32.1729 42.2818 32.3024 42.1527 32.4555 42.1527H33.8104C34.362 42.1527 34.8403 41.771 34.9628 41.2332C35.215 40.125 35.6483 39.0737 36.2508 38.1083C36.5416 37.6422 36.473 37.0372 36.085 36.6481L35.1182 35.6785C35.0525 35.6134 35.0387 35.5362 35.0386 35.4829C35.0386 35.4384 35.0491 35.3531 35.1206 35.2817L36.6314 33.7717C36.703 33.7002 36.7884 33.6894 36.8334 33.6894H36.8338C36.8873 33.6895 36.9649 33.7033 37.0342 33.7731L37.9871 34.7223C38.3787 35.1122 38.9877 35.179 39.4539 34.8832C40.4195 34.271 41.4771 33.8276 42.5972 33.5654C43.1316 33.4404 43.5095 32.9636 43.5095 32.4147V31.064C43.5095 30.9095 43.6389 30.7788 43.792 30.7788H45.9306C46.0856 30.7788 46.2166 30.9095 46.2166 31.064V32.3948C46.2166 32.9485 46.601 33.4279 47.1416 33.5483C48.266 33.7987 49.3387 34.241 50.33 34.8629C50.7959 35.1549 51.4021 35.0874 51.7921 34.6991L52.7557 33.7393C52.8211 33.6736 52.8986 33.6597 52.9521 33.6596H52.9525C52.9975 33.6596 53.0829 33.6704 53.1544 33.7419L54.6653 35.2519C54.7368 35.3233 54.7473 35.4087 54.7473 35.4532C54.7472 35.5064 54.7334 35.5836 54.6639 35.6526L53.7075 36.6118C53.3181 37.0024 53.2506 37.6104 53.5448 38.0768C54.1567 39.0467 54.5968 40.1089 54.8532 41.2337C54.9758 41.7713 55.4539 42.1528 56.0055 42.1528H57.3504C57.5027 42.1528 57.6364 42.2846 57.6364 42.4346V44.5749Z"></path>
                                                <path d="M44.9047 36.2874C40.9224 36.2874 37.6826 39.5257 37.6826 43.5062C37.6826 47.4849 40.9224 50.7218 44.9047 50.7218C48.8852 50.7218 52.1234 47.485 52.1234 43.5062C52.1234 39.5258 48.8852 36.2874 44.9047 36.2874ZM44.9047 48.3583C42.2257 48.3583 40.0462 46.1816 40.0462 43.5062C40.0462 40.829 42.2257 38.6509 44.9047 38.6509C47.5818 38.6509 49.7598 40.829 49.7598 43.5062C49.7598 46.1816 47.5817 48.3583 44.9047 48.3583Z"></path>
                                                <path d="M17.7484 44.8568H17.7252C17.0726 44.8568 16.5435 45.3859 16.5435 46.0385C16.5435 46.6911 17.0726 47.2202 17.7252 47.2202H17.7484C18.401 47.2202 18.9301 46.6911 18.9301 46.0385C18.9301 45.3859 18.401 44.8568 17.7484 44.8568Z"></path>
                                            </svg>